<svg xmlns="http://www.w3.org/2000/svg">
    <symbol id="svgPattern">
        <path fill-rule="evenodd" d="M977.000,547.000 L964.711,547.000 C961.147,545.902 957.581,544.807 954.001,543.760 C947.988,542.001 942.123,539.901 936.318,537.635 C936.689,539.269 936.406,540.654 936.288,542.645 C936.203,544.077 936.246,545.537 936.326,547.000 L932.748,547.000 C932.565,543.863 932.766,540.612 932.289,537.556 C932.218,537.102 932.323,536.666 932.529,536.287 C932.501,536.225 932.472,536.164 932.452,536.099 C928.021,534.313 923.614,532.455 919.193,530.601 C919.103,530.563 919.136,530.419 919.234,530.450 C923.745,531.889 928.243,533.296 932.754,534.642 C934.876,531.354 937.462,528.433 939.980,525.446 C941.727,523.372 943.175,521.327 945.212,519.759 C945.168,519.672 945.130,519.579 945.100,519.478 C944.233,516.516 942.218,514.077 941.112,511.272 C936.284,512.315 931.999,515.546 927.717,518.145 C923.798,520.524 919.821,522.932 916.193,525.742 C914.837,526.791 913.465,527.663 913.094,529.305 C912.657,531.233 913.926,534.065 914.763,535.777 C916.732,539.514 918.692,543.258 920.654,547.000 L914.994,547.000 C913.479,544.097 911.964,541.195 910.438,538.299 C908.487,534.307 906.580,528.677 909.704,524.839 C912.928,520.877 918.347,518.072 922.607,515.417 C930.338,510.599 937.106,504.625 947.039,506.159 C956.655,507.644 966.871,510.551 976.012,513.893 C976.359,514.020 976.674,514.174 977.000,514.319 L977.000,521.226 C973.901,522.578 971.156,524.779 969.123,527.486 C968.958,527.705 968.757,527.904 968.531,528.057 C969.243,529.910 969.265,532.229 969.473,533.988 C969.795,536.711 971.382,541.143 970.898,544.331 C972.941,544.844 974.974,545.389 977.000,545.951 L977.000,547.000 ZM942.981,527.008 C940.962,530.015 938.597,532.799 936.453,535.727 C942.840,537.578 949.263,539.292 955.792,540.776 C959.587,541.638 963.456,542.520 967.332,543.453 C967.461,542.333 967.172,540.608 967.132,539.816 C967.032,537.815 966.840,535.814 966.790,533.812 C966.743,531.920 966.891,530.036 966.796,528.162 C960.113,525.949 953.507,523.515 946.888,521.120 C946.820,521.096 946.765,521.062 946.703,521.033 C945.626,523.112 944.187,525.214 942.981,527.008 ZM976.766,519.800 C975.573,518.942 974.558,518.672 972.845,518.156 C964.201,515.551 955.362,512.544 946.432,511.103 C945.043,510.879 943.706,510.881 942.408,511.047 C944.303,513.235 947.135,515.003 947.966,517.619 C952.225,519.161 956.455,520.782 960.710,522.333 C962.308,522.916 964.603,524.312 966.239,524.304 C966.838,524.301 967.101,524.342 967.200,524.391 C967.351,524.300 967.631,524.160 968.133,523.950 C970.915,522.785 973.668,520.353 976.766,519.800 ZM975.037,502.527 C975.673,501.895 976.334,501.288 977.000,500.686 L977.000,505.268 C975.452,505.972 973.561,503.994 975.037,502.527 ZM977.000,35.444 L977.000,39.617 C976.728,39.350 976.445,39.108 976.144,38.920 C974.262,37.746 975.538,35.664 977.000,35.444 ZM954.494,34.059 C951.924,35.806 951.622,36.129 949.672,37.566 C945.467,40.666 941.048,41.989 936.998,38.022 C934.607,35.679 932.811,32.665 931.220,29.744 C925.858,19.902 920.700,9.942 915.517,-0.000 L921.178,-0.000 C925.843,8.898 930.508,17.795 935.245,26.654 C936.100,28.253 936.980,29.828 938.014,31.325 C940.131,34.386 941.851,36.604 945.520,34.379 C946.682,33.675 947.636,32.750 948.718,31.950 C953.596,28.347 958.790,25.105 963.798,21.684 C968.179,18.692 972.621,15.750 977.000,12.728 L977.000,18.871 C973.436,21.261 969.837,23.601 966.325,26.000 C962.385,28.691 958.441,31.377 954.494,34.059 ZM965.626,6.271 C962.765,8.895 960.305,11.895 957.762,14.817 C955.107,17.866 952.142,20.624 949.522,23.704 C947.110,26.540 945.094,29.598 942.588,32.354 C942.496,32.456 942.342,32.325 942.404,32.212 C944.231,28.899 945.319,25.249 947.339,22.022 C949.317,18.861 951.825,16.016 954.086,13.060 C956.270,10.206 958.311,7.209 960.710,4.524 C962.080,2.990 963.908,1.601 965.330,-0.000 L977.000,-0.000 L977.000,2.683 C975.024,2.107 973.042,1.552 971.080,0.956 C969.553,3.025 967.523,4.532 965.626,6.271 ZM936.384,25.047 C934.121,20.797 934.448,14.781 933.970,10.074 C933.633,6.757 933.130,3.460 932.812,0.141 C932.807,0.095 932.808,0.047 932.804,-0.000 L936.376,-0.000 C936.509,1.895 936.707,3.788 936.853,5.634 C937.371,12.151 937.312,18.539 936.477,25.021 C936.472,25.066 936.410,25.095 936.384,25.047 ZM909.294,20.127 C906.376,20.857 903.818,22.149 901.145,23.524 C899.762,24.236 897.838,25.582 896.244,25.697 C896.178,25.701 896.164,25.595 896.228,25.582 C897.188,25.382 897.936,24.358 898.625,23.736 C899.583,22.871 900.572,22.036 901.551,21.195 C903.425,19.585 905.500,17.506 907.711,16.381 C910.462,14.981 912.096,19.427 909.294,20.127 ZM880.323,1.813 C880.000,1.744 880.052,1.305 880.323,1.211 C881.380,0.845 882.424,0.431 883.462,-0.000 L892.733,-0.000 C888.640,1.094 884.416,2.688 880.323,1.813 ZM903.976,138.977 C916.735,147.022 924.990,165.736 920.274,180.477 C917.576,188.912 910.343,196.006 902.927,200.466 C900.618,201.855 897.622,203.417 894.695,203.866 C894.924,210.967 893.585,219.775 887.045,222.158 C886.518,222.812 885.564,222.988 884.891,222.674 C884.368,222.742 883.825,222.783 883.249,222.781 C876.821,222.754 867.608,221.765 864.259,215.274 C861.639,210.196 863.623,202.333 865.573,196.720 C857.365,192.047 850.096,183.794 848.160,174.497 C844.981,159.226 855.618,141.774 869.472,135.740 C880.364,130.996 893.984,132.676 903.976,138.977 ZM865.400,144.000 C854.872,152.428 848.513,168.270 855.924,180.625 C859.134,185.977 864.328,190.587 869.900,193.356 C870.313,193.561 870.603,193.829 870.809,194.128 C871.205,194.648 871.359,195.349 871.044,196.191 C869.460,200.425 867.014,207.544 868.272,211.895 C868.717,213.435 869.876,214.628 871.394,215.544 C871.897,212.829 872.024,210.079 872.440,207.336 C872.936,204.065 873.855,200.808 874.526,197.565 C874.541,197.492 874.664,197.488 874.676,197.565 C875.213,201.056 874.843,204.830 874.728,208.359 C874.640,211.064 874.690,214.058 873.950,216.731 C875.402,217.240 876.981,217.574 878.526,217.768 C878.792,211.661 878.554,205.118 880.217,199.350 C880.228,199.312 880.281,199.313 880.292,199.350 C882.050,205.094 881.935,211.866 881.375,217.974 C882.471,217.990 883.473,217.927 884.321,217.802 C884.351,215.299 884.241,212.797 884.407,210.292 C884.631,206.899 885.214,203.598 885.716,200.244 C885.727,200.169 885.855,200.169 885.866,200.244 C886.379,203.662 886.771,206.829 886.883,210.292 C886.947,212.267 887.214,214.204 887.387,216.146 C890.279,212.744 889.882,205.084 889.576,201.423 C889.473,200.192 890.802,198.755 892.065,198.913 C895.475,199.337 899.270,196.980 901.921,195.169 C909.993,189.654 916.714,181.688 916.616,171.435 C916.495,158.810 908.321,145.664 896.656,140.855 C886.435,136.642 874.299,136.875 865.400,144.000 ZM888.643,179.429 C889.420,181.624 890.408,188.178 885.806,186.381 C884.743,185.966 884.560,184.695 883.665,184.218 C882.190,183.432 880.707,185.330 879.394,185.728 C877.518,186.297 875.645,185.582 875.141,183.564 C874.455,180.818 876.842,177.898 878.312,175.822 C879.005,174.843 879.799,173.772 880.791,173.139 C880.819,172.989 880.911,172.845 881.088,172.740 C884.912,170.467 887.643,176.605 888.643,179.429 ZM881.910,173.767 C881.020,174.734 880.337,175.858 879.697,177.032 C878.994,178.323 877.094,180.635 877.104,182.065 C877.131,186.035 881.001,182.411 882.053,182.160 C882.918,181.954 883.770,182.138 884.479,182.687 C885.491,183.471 887.625,186.439 887.825,183.509 C887.895,182.481 887.403,181.323 887.045,180.383 C886.417,178.736 884.192,173.043 881.910,173.767 ZM875.617,169.793 C869.662,172.484 863.058,167.101 863.595,160.785 C864.016,155.821 867.196,151.179 872.281,151.610 C874.765,151.316 877.390,152.379 879.322,155.012 C882.645,159.540 880.791,167.455 875.617,169.793 ZM877.591,156.033 C874.753,150.790 869.012,152.815 866.031,156.687 C866.001,156.725 865.953,156.676 865.970,156.639 C866.283,155.943 866.659,155.318 867.077,154.759 C865.675,156.373 865.014,158.695 865.548,161.054 C866.456,165.058 870.350,168.928 874.608,166.912 C878.295,165.166 879.448,159.463 877.591,156.033 ZM893.021,160.592 C896.490,155.908 903.347,157.799 906.523,161.813 C909.956,166.152 908.770,172.792 903.647,175.205 C901.316,176.302 898.539,176.222 896.296,174.921 C894.965,174.150 893.724,172.945 892.931,171.624 C892.766,171.348 892.647,171.069 892.548,170.789 C891.735,169.338 891.416,167.435 891.508,165.584 C891.505,165.548 891.509,165.515 891.511,165.480 C891.621,163.585 892.152,161.766 893.021,160.592 ZM895.950,172.340 C897.940,173.612 900.251,174.241 902.475,173.184 C906.311,171.361 907.735,166.296 904.971,162.925 C902.610,160.044 897.692,158.369 894.788,161.425 C893.908,162.352 893.259,164.006 892.973,165.791 C893.750,168.292 893.319,170.658 895.950,172.340 ZM845.500,265.000 C844.119,265.000 843.000,263.881 843.000,262.500 C843.000,261.119 844.119,260.000 845.500,260.000 C846.881,260.000 848.000,261.119 848.000,262.500 C848.000,263.881 846.881,265.000 845.500,265.000 ZM829.146,461.372 C827.167,459.976 826.695,457.241 828.090,455.262 C829.486,453.283 832.222,452.810 834.200,454.206 C836.179,455.602 836.652,458.337 835.256,460.316 C833.860,462.295 831.125,462.767 829.146,461.372 ZM830.245,43.734 C826.933,49.560 820.301,51.001 815.030,47.675 C812.061,48.948 808.402,48.432 806.513,45.531 C805.001,43.209 805.519,40.621 806.795,38.399 C797.585,31.263 788.375,24.128 779.165,16.992 C775.696,17.852 771.862,17.498 768.943,15.359 C767.834,14.546 766.643,13.307 765.840,11.901 C761.671,13.847 756.848,13.616 753.617,10.279 C744.780,18.654 729.232,20.475 718.686,14.833 C716.255,13.533 717.726,10.480 719.947,10.185 C718.606,10.363 721.044,9.976 721.401,9.905 C722.742,9.639 724.073,9.313 725.390,8.946 C729.716,7.742 733.904,6.057 737.750,3.728 C737.826,3.682 737.894,3.629 737.970,3.582 C734.709,3.314 731.610,2.195 729.040,-0.000 L749.555,-0.000 C749.219,0.409 748.878,0.815 748.522,1.208 C748.335,1.565 748.057,1.881 747.670,2.118 C742.862,7.060 736.547,10.657 729.836,12.890 C732.887,13.145 735.991,12.922 738.752,12.363 C742.317,11.640 745.747,10.167 748.649,7.964 C749.537,7.290 750.352,6.536 751.133,5.743 C751.175,5.699 751.381,5.459 751.572,5.237 C751.312,4.017 751.388,2.706 751.891,1.434 C752.099,0.907 752.374,0.433 752.694,-0.000 L757.762,-0.000 C757.284,0.599 756.879,1.282 756.592,2.118 C755.909,4.110 756.916,5.718 758.348,7.019 C758.596,7.245 758.753,7.501 758.845,7.767 C761.055,8.636 763.784,7.871 765.806,6.082 C767.505,4.581 770.928,5.997 769.981,8.510 C769.224,10.519 773.756,12.343 775.130,12.443 C776.460,12.539 777.666,11.917 778.930,11.878 C780.285,11.837 780.909,12.192 781.971,12.901 C785.210,15.066 788.208,17.734 791.286,20.118 C798.179,25.459 805.072,30.799 811.965,36.140 C813.082,37.005 812.776,38.758 811.965,39.668 C810.486,41.330 811.971,43.953 813.938,42.581 C814.875,41.927 816.183,42.286 816.965,42.971 C820.231,45.833 826.479,44.222 826.548,39.306 C826.572,37.544 825.171,36.106 823.668,35.109 C821.400,37.169 819.234,39.338 816.630,40.980 C816.548,41.031 816.444,40.928 816.497,40.846 C818.184,38.222 819.946,35.665 821.082,32.777 C820.956,32.146 821.062,31.449 821.316,30.864 C822.487,28.172 821.170,26.806 818.826,28.967 C818.811,28.981 818.794,28.990 818.779,29.004 C817.938,29.953 817.183,30.969 816.375,31.963 C815.206,33.401 813.908,34.220 812.285,34.996 C812.245,35.016 812.178,34.983 812.199,34.930 C812.877,33.263 813.251,31.514 814.131,29.901 C814.365,29.471 814.618,29.050 814.886,28.638 C808.756,23.688 802.626,18.738 796.497,13.788 C794.199,11.932 791.458,10.147 789.151,8.124 C787.843,10.544 785.171,12.319 782.436,12.285 C782.341,12.284 782.288,12.199 782.304,12.112 C782.731,9.851 784.521,8.448 785.350,6.358 C785.671,5.549 785.871,4.649 785.921,3.767 C785.443,2.522 785.034,1.168 784.473,-0.000 L790.225,-0.000 C790.510,0.781 790.733,1.592 790.870,2.428 C790.896,2.583 790.917,2.715 790.937,2.839 C791.191,3.055 791.450,3.364 791.654,3.497 C793.375,4.621 794.935,6.147 796.534,7.438 C803.380,12.966 810.226,18.495 817.072,24.023 C819.541,22.326 822.753,21.200 825.239,23.265 C827.551,25.184 827.332,28.290 826.510,31.010 C830.672,33.877 833.000,38.887 830.245,43.734 ZM770.794,3.572 C770.794,3.604 770.794,3.635 770.794,3.667 C770.794,3.692 770.755,3.692 770.755,3.667 C770.755,3.634 770.755,3.602 770.755,3.569 C770.728,3.559 770.707,3.537 770.718,3.507 C771.166,2.290 771.615,1.125 772.135,-0.000 L774.996,-0.000 C773.593,1.186 772.378,2.551 770.804,3.573 C770.801,3.575 770.797,3.571 770.794,3.572 ZM722.197,140.997 C728.379,139.899 734.884,139.714 741.050,140.666 C745.777,141.396 750.545,142.980 754.230,146.124 C757.592,148.994 759.599,153.110 761.604,156.969 C769.244,171.677 776.376,187.409 781.841,203.076 C787.999,220.729 767.062,232.885 752.293,234.183 C742.987,235.001 735.176,225.949 728.593,220.461 C720.624,213.817 712.463,207.085 705.486,199.378 C694.444,187.180 696.061,169.614 701.915,155.205 C696.732,147.288 691.549,139.372 686.367,131.455 C678.293,131.712 669.000,126.848 670.130,117.640 C671.387,107.397 684.406,100.401 693.717,99.476 C698.535,98.998 702.641,100.859 704.587,105.440 C705.685,108.024 706.812,114.132 705.219,116.977 C705.900,117.587 706.455,118.784 706.961,119.502 C709.075,122.500 711.188,125.497 713.302,128.494 C716.136,132.514 718.970,136.533 721.804,140.552 C721.934,140.701 722.066,140.849 722.197,140.997 ZM704.660,116.239 C704.709,116.247 704.762,116.316 704.815,116.398 C704.789,116.314 704.743,116.253 704.660,116.239 ZM718.850,145.012 C718.723,144.831 718.595,144.650 718.467,144.469 C718.040,143.910 717.614,143.313 717.210,142.686 C714.752,139.199 712.293,135.712 709.834,132.225 C707.717,129.222 705.600,126.219 703.482,123.216 C703.082,122.649 702.575,122.043 702.073,121.419 C701.445,122.231 700.747,122.982 699.989,123.637 C697.788,125.536 694.408,127.797 691.361,126.754 C691.333,126.744 691.324,126.711 691.344,126.688 C693.101,124.708 695.524,123.475 697.271,121.453 C698.477,120.056 699.342,118.614 699.971,117.045 C699.922,114.919 700.932,112.507 700.710,110.418 C699.681,100.777 689.438,105.176 683.913,108.135 C678.552,111.005 670.479,119.149 678.101,124.463 C680.744,126.306 684.516,126.703 687.664,126.379 C688.878,126.255 689.625,126.895 689.916,127.755 C693.877,133.806 697.838,139.857 701.800,145.908 C703.332,148.249 705.768,150.909 706.789,153.530 C707.683,155.824 706.460,157.130 705.638,159.567 C702.284,169.514 699.891,182.255 705.768,191.719 C710.873,199.940 719.914,206.548 727.175,212.750 C731.208,216.195 735.296,219.576 739.417,222.915 C741.090,224.270 742.733,225.745 744.492,226.989 C747.900,229.400 751.228,229.497 755.209,228.732 C765.651,226.725 780.467,218.725 777.512,205.852 C776.496,201.428 774.031,196.977 772.302,192.805 C768.318,183.191 764.217,173.606 759.664,164.244 C757.858,160.529 756.043,156.740 753.804,153.260 C750.942,148.813 746.382,146.736 741.306,145.756 C736.480,144.825 731.266,144.784 726.263,145.402 C726.962,146.250 727.585,147.137 728.036,148.081 C728.238,148.505 728.313,148.946 728.292,149.374 C728.897,150.588 729.253,151.708 728.805,153.258 C728.275,155.093 727.027,156.651 725.727,158.015 C722.839,161.047 719.207,162.172 715.150,161.109 C715.111,161.099 715.115,161.046 715.150,161.034 C717.803,160.153 720.519,158.306 722.467,156.304 C723.308,155.439 724.533,154.152 724.857,152.954 C725.002,152.420 724.846,151.971 724.605,151.533 C724.599,151.530 724.592,151.528 724.586,151.524 C722.360,150.196 720.726,147.536 719.139,145.368 C719.038,145.258 718.941,145.141 718.850,145.012 ZM679.362,116.377 L688.071,112.789 L692.817,107.878 L693.188,109.315 C693.188,109.315 692.001,112.152 689.347,114.820 C686.693,117.489 679.362,116.377 679.362,116.377 ZM720.273,196.737 C723.475,196.226 727.134,197.934 730.433,199.388 C730.468,197.354 730.467,195.327 730.165,193.346 C730.152,193.261 730.258,193.169 730.328,193.251 C732.223,195.481 732.985,197.984 733.409,200.606 C736.582,201.722 740.689,203.100 742.432,206.195 C742.972,207.155 741.764,207.938 740.989,207.306 C738.869,205.576 736.376,204.533 733.792,203.652 C734.002,205.700 734.188,207.783 734.695,209.837 C735.199,211.883 732.344,212.562 731.603,210.687 C730.567,208.065 730.387,205.318 730.390,202.547 C726.656,201.350 722.982,200.029 720.186,197.063 C720.095,196.966 720.120,196.761 720.273,196.737 ZM738.274,188.390 C740.944,188.930 743.448,190.005 745.992,190.956 C746.174,188.778 746.436,186.622 746.785,184.545 C746.860,184.102 747.624,184.094 747.690,184.545 C748.066,187.121 749.155,189.461 749.403,192.082 C751.793,192.728 754.212,193.135 756.414,194.361 C758.371,195.451 756.648,198.278 754.678,197.326 C753.028,196.529 751.269,196.040 749.535,195.490 C749.544,197.757 749.408,200.050 749.058,202.242 C748.744,204.211 745.775,203.609 745.718,201.791 C745.638,199.268 745.664,196.647 745.794,194.022 C743.084,192.650 740.217,190.912 738.027,188.814 C737.833,188.628 738.037,188.342 738.274,188.390 ZM752.976,179.773 C752.825,179.745 752.829,179.503 752.976,179.472 C755.006,179.046 756.805,180.223 758.509,181.164 C758.815,181.333 759.123,181.469 759.431,181.600 C759.728,179.263 760.387,176.896 760.189,174.576 C760.165,174.300 760.571,174.278 760.649,174.514 C761.552,177.234 761.999,179.582 762.214,182.413 C764.026,182.761 765.863,182.897 767.708,183.506 C769.141,183.980 769.283,186.145 767.708,186.553 C766.166,186.953 764.334,186.759 762.630,186.242 C762.819,188.064 762.872,189.884 762.225,191.604 C761.592,193.286 758.859,193.159 758.923,191.158 C758.991,189.003 759.088,186.815 759.213,184.642 C757.164,183.189 755.477,180.247 752.976,179.773 ZM699.280,391.366 C704.971,398.704 704.088,408.603 700.229,416.546 C694.696,427.932 683.577,434.361 672.911,440.418 C668.771,442.769 664.136,445.752 659.420,446.914 C659.176,446.974 658.947,446.990 658.725,446.988 C658.624,446.988 658.524,446.976 658.423,446.968 C658.381,446.962 658.338,446.960 658.298,446.952 C656.641,446.758 655.083,445.436 653.838,444.508 C650.481,442.002 647.395,439.121 644.552,436.062 C638.440,429.484 632.781,421.510 630.989,412.599 C628.983,402.627 633.061,392.236 640.897,385.662 C646.719,380.778 654.582,379.979 661.070,384.096 C664.807,386.467 667.167,390.085 668.454,394.136 C670.662,390.836 673.436,387.894 676.775,385.934 C684.507,381.395 694.027,384.593 699.280,391.366 ZM658.962,441.995 C659.293,442.105 659.360,441.992 658.962,441.995 ZM664.646,401.835 C664.506,394.894 661.295,387.698 653.744,386.459 C643.488,384.776 635.574,397.927 635.418,406.647 C635.253,415.955 641.079,424.686 647.068,431.401 C649.511,434.140 652.148,436.730 654.978,439.078 C655.985,439.914 657.199,440.612 658.160,441.487 C658.399,441.706 658.603,441.829 658.777,441.913 C663.462,440.576 668.039,437.492 672.135,435.113 C683.143,428.717 695.197,421.396 697.929,408.024 C699.817,398.787 692.518,385.113 681.179,389.309 C675.721,391.328 671.225,398.474 669.585,402.496 C668.566,404.997 664.705,404.804 664.646,401.835 ZM647.827,422.208 C647.839,422.230 647.807,422.249 647.793,422.227 C642.153,413.125 637.869,402.790 645.361,393.480 C647.403,390.943 651.509,394.989 648.945,397.024 C640.371,403.827 643.424,413.870 647.827,422.208 ZM664.500,47.000 C663.119,47.000 662.000,45.881 662.000,44.500 C662.000,43.119 663.119,42.000 664.500,42.000 C665.881,42.000 667.000,43.119 667.000,44.500 C667.000,45.881 665.881,47.000 664.500,47.000 ZM636.164,271.452 C638.116,275.680 639.372,280.767 637.598,284.969 C636.269,288.118 631.558,291.999 627.369,292.298 C627.084,299.216 623.671,306.288 616.274,307.584 C608.235,308.994 599.589,304.762 597.141,297.039 C591.855,297.338 586.298,294.393 584.033,289.637 C582.203,285.794 581.702,281.131 581.776,276.768 C579.229,276.660 576.615,276.036 574.516,274.747 C569.000,271.361 569.764,264.909 571.687,259.601 C575.811,248.216 586.128,239.256 598.215,237.235 C596.882,234.845 595.535,232.444 594.460,229.964 C593.070,226.757 595.027,225.178 597.948,223.818 C602.165,221.855 609.737,219.999 612.786,224.887 C614.773,228.072 613.584,232.371 612.243,236.092 C622.579,235.873 631.767,241.044 637.942,249.626 C640.977,253.844 643.996,259.457 642.424,264.818 C641.507,267.949 639.083,270.254 636.164,271.452 ZM627.452,287.116 C628.210,286.951 629.003,286.514 629.521,286.236 C632.479,284.648 633.619,282.474 633.278,279.243 C633.004,276.645 631.947,274.011 630.675,271.702 C629.109,271.656 627.532,271.330 625.992,270.804 C625.293,274.516 621.593,275.983 617.874,275.904 C618.472,278.311 619.857,280.617 621.274,282.520 C623.056,284.914 624.747,286.280 627.452,287.116 ZM601.538,294.217 C602.140,299.849 610.486,304.811 616.930,302.260 C621.793,300.335 622.714,293.919 622.290,289.280 C622.118,289.152 621.948,289.020 621.781,288.881 C618.707,294.169 611.194,295.720 605.630,293.627 C604.709,293.280 603.733,292.681 602.803,291.926 C602.796,291.944 602.794,291.964 602.787,291.982 C602.508,292.750 602.054,293.418 601.489,293.967 C601.504,294.051 601.529,294.131 601.538,294.217 ZM606.442,288.967 C611.299,291.215 615.520,289.223 618.984,285.778 C618.987,285.774 618.992,285.772 618.996,285.768 C618.836,285.533 618.682,285.299 618.541,285.068 C616.756,282.133 615.680,278.931 616.444,275.798 C615.198,275.640 613.995,275.326 612.958,274.861 C611.127,274.041 609.436,272.944 607.945,271.638 C607.960,273.737 607.687,275.723 606.263,277.593 C604.838,279.463 602.603,280.767 600.368,281.493 C602.595,283.898 603.020,287.383 606.442,288.967 ZM606.577,270.324 C603.967,267.549 602.213,264.040 601.831,260.187 C599.721,266.310 596.026,272.033 590.454,274.494 C590.609,274.624 590.755,274.778 590.879,274.980 C592.660,277.902 596.810,278.726 599.822,277.597 C603.596,276.182 604.905,273.376 606.577,270.324 ZM596.685,292.133 C596.707,292.117 596.726,292.098 596.749,292.083 C597.606,291.515 598.769,291.381 599.216,290.379 C599.482,289.781 599.597,289.106 599.753,288.464 C598.467,286.344 597.929,283.937 599.004,281.852 C594.791,282.618 589.823,280.545 587.635,276.878 C587.334,276.373 587.299,275.883 587.430,275.455 C587.229,275.496 587.024,275.528 586.819,275.561 C586.619,282.437 588.149,293.187 596.685,292.133 ZM629.677,247.501 C624.390,242.438 615.634,240.268 609.206,241.331 C607.491,241.615 605.430,240.228 606.125,238.248 C606.920,235.985 609.897,229.991 608.707,227.908 C607.517,225.825 601.710,227.006 599.334,228.479 C601.011,231.668 602.688,234.857 604.365,238.046 C605.264,239.755 604.144,241.746 602.203,241.817 C592.569,242.170 582.337,248.756 578.073,257.282 C576.016,261.396 572.483,269.015 578.673,271.164 C580.454,271.782 582.511,271.869 584.379,271.691 C584.612,271.668 584.823,271.681 585.022,271.711 C589.220,270.861 592.133,269.331 595.019,265.634 C596.563,263.656 597.826,261.467 599.123,259.323 C600.614,256.860 602.611,254.666 603.701,251.983 C603.709,251.964 603.743,251.964 603.740,251.988 C603.429,254.425 602.867,257.012 602.041,259.550 C603.829,262.983 606.163,265.839 609.301,268.158 C612.247,270.336 621.079,275.161 622.691,269.359 C620.383,268.127 618.268,266.549 616.563,264.930 C611.216,259.853 608.340,253.885 609.486,246.538 C609.498,246.461 609.620,246.467 609.637,246.538 C612.310,258.171 622.903,267.435 634.977,266.795 C642.623,263.849 632.839,250.529 629.677,247.501 ZM583.200,144.206 C585.179,145.602 585.652,148.337 584.256,150.316 C582.860,152.295 580.125,152.767 578.146,151.372 C576.167,149.976 575.695,147.241 577.090,145.262 C578.486,143.283 581.222,142.810 583.200,144.206 ZM610.880,22.217 C603.734,28.985 592.435,19.583 585.931,15.919 C576.263,10.472 566.594,4.948 556.654,-0.000 L567.579,-0.000 C574.030,3.441 580.399,7.046 586.762,10.627 C590.878,12.943 594.978,15.292 599.122,17.558 C601.458,18.834 603.768,19.859 605.767,19.292 C605.101,17.343 605.223,15.499 604.939,13.344 C604.466,9.752 602.946,6.257 602.146,2.708 C601.944,1.812 601.798,0.904 601.637,-0.000 L603.698,-0.000 C604.362,3.358 605.280,6.616 606.043,9.973 C606.623,12.522 606.538,15.819 607.473,18.313 C607.853,17.962 608.217,17.530 608.557,16.984 C611.703,11.942 613.949,6.008 616.553,0.670 C616.662,0.447 616.769,0.223 616.878,-0.000 L622.417,-0.000 C621.406,2.077 620.403,4.158 619.389,6.234 C617.002,11.115 614.963,18.349 610.880,22.217 ZM586.361,362.458 C584.783,361.345 584.406,359.164 585.519,357.586 C586.632,356.008 588.814,355.631 590.392,356.744 C591.970,357.857 592.347,360.038 591.234,361.616 C590.121,363.194 587.939,363.571 586.361,362.458 ZM562.720,488.279 C567.174,487.995 571.344,490.578 575.137,492.614 C579.821,495.129 584.444,497.759 589.080,500.363 C598.157,505.462 607.118,510.688 616.787,514.554 C619.656,515.701 622.498,516.938 625.265,518.317 C625.740,518.553 626.211,518.808 626.687,519.045 C626.569,518.968 627.125,519.183 627.382,519.324 C630.508,521.032 632.000,523.615 631.577,527.288 C631.089,531.523 628.279,535.898 626.454,539.689 C625.279,542.131 624.087,544.563 622.903,547.000 L617.363,547.000 C619.181,543.270 620.997,539.540 622.792,535.799 C623.723,533.857 626.599,529.400 626.759,526.437 C622.594,528.087 617.905,529.137 613.831,530.356 C609.498,531.653 605.126,532.484 600.709,533.220 C602.626,536.903 602.662,541.586 603.260,545.588 C603.332,546.065 603.432,546.529 603.516,547.000 L601.449,547.000 C600.706,542.482 600.310,537.895 599.458,533.426 C598.183,533.633 596.905,533.836 595.622,534.042 C587.201,535.394 578.787,535.297 577.426,525.514 C577.097,524.788 576.779,524.047 576.459,523.287 C576.181,522.626 575.871,521.990 575.549,521.361 C570.755,524.695 565.195,526.974 560.015,529.625 C554.956,532.214 550.078,534.927 544.688,536.697 C544.976,536.993 545.300,537.285 545.693,537.570 C547.702,539.028 550.207,539.948 552.608,540.514 C552.939,540.592 553.210,540.723 553.444,540.881 C557.579,542.814 561.657,544.871 565.699,547.000 L554.623,547.000 C553.465,546.435 552.306,545.872 551.140,545.325 C543.210,543.415 535.998,538.064 538.897,529.167 C542.273,518.803 547.423,508.858 552.116,499.054 C554.502,494.069 556.233,488.693 562.720,488.279 ZM578.280,518.953 C580.267,522.407 581.585,526.064 584.223,529.122 C584.331,529.247 584.419,529.376 584.491,529.507 C585.791,530.239 587.252,530.569 589.263,530.661 C594.168,530.886 599.470,530.235 604.290,529.377 C610.870,528.207 618.242,524.534 625.233,523.693 C624.013,522.971 622.280,522.423 621.426,522.016 C617.275,520.036 612.904,518.619 608.741,516.681 C600.956,513.056 593.512,508.610 586.029,504.405 C581.839,502.051 577.656,499.681 573.430,497.394 C570.421,495.766 565.873,492.529 562.339,493.372 C561.945,493.466 561.582,493.626 561.234,493.815 C565.484,498.211 569.107,503.661 571.929,508.933 C573.818,512.461 576.296,515.504 578.280,518.953 ZM544.777,527.579 C543.564,530.747 542.286,533.646 544.236,536.177 C553.250,529.093 564.429,524.637 574.774,519.919 C573.369,517.423 571.773,515.066 570.513,512.448 C568.871,509.036 567.354,505.658 565.347,502.437 C563.700,499.796 562.312,496.851 560.672,494.167 C557.815,496.238 556.546,501.334 555.241,504.083 C551.572,511.813 547.839,519.580 544.777,527.579 ZM541.566,60.510 C541.335,61.008 541.034,61.486 540.756,61.997 C540.106,63.194 539.586,64.434 538.839,65.579 C538.045,66.798 537.201,68.001 536.289,69.134 C535.941,69.567 535.570,70.127 535.054,70.374 C534.685,70.552 534.197,70.412 533.858,70.587 C533.644,70.698 533.433,70.477 533.537,70.265 C533.636,70.064 533.409,69.381 533.434,69.122 C533.487,68.566 533.767,68.019 533.936,67.492 C534.343,66.226 534.647,64.936 534.984,63.651 C535.124,63.114 535.295,62.581 535.462,62.046 C528.495,63.750 521.527,65.454 514.560,67.159 C516.086,73.342 517.612,79.525 519.139,85.708 C520.152,84.540 521.350,82.791 522.822,82.405 C524.095,82.071 523.587,85.499 523.458,85.964 C522.767,88.457 520.537,90.943 520.530,93.549 C520.518,97.989 513.947,96.991 514.435,93.236 C513.670,92.755 512.971,92.241 512.447,91.893 C511.036,90.956 509.581,90.072 508.239,89.034 C507.683,88.604 506.549,86.967 505.789,86.979 C505.636,86.982 505.602,86.744 505.753,86.710 C506.503,86.540 507.206,85.997 508.053,85.884 C509.364,85.709 510.730,86.093 511.968,86.525 C512.811,86.820 513.626,87.188 514.447,87.542 C512.867,81.143 511.288,74.744 509.708,68.346 C502.004,70.230 494.300,72.115 486.597,73.999 C486.956,74.240 487.321,74.474 487.680,74.710 C489.214,75.718 490.297,76.826 491.566,78.121 C492.186,78.754 491.384,79.817 490.620,79.352 C488.991,78.362 486.665,78.213 484.845,77.606 C483.081,77.018 481.208,76.112 479.935,74.720 C478.999,73.697 478.998,72.607 479.458,71.739 C479.433,71.427 479.456,71.110 479.547,70.799 C479.761,70.065 480.101,69.572 480.605,69.120 C481.698,67.729 482.852,66.383 484.107,65.138 C484.818,64.434 485.551,63.639 486.416,63.131 C486.679,62.977 486.996,62.786 487.289,62.710 C487.425,62.675 488.392,62.714 488.411,62.688 C488.500,62.568 488.703,62.686 488.613,62.807 C488.571,62.863 488.860,63.759 488.864,63.916 C488.874,64.311 488.723,64.852 488.592,65.220 C488.270,66.123 487.712,67.015 487.258,67.855 C487.086,68.173 486.908,68.487 486.731,68.802 C493.990,67.027 501.248,65.251 508.506,63.476 C506.755,56.383 505.004,49.290 503.253,42.197 C502.856,42.855 502.458,43.500 502.073,44.120 C500.183,47.154 498.169,48.346 495.330,50.275 C495.049,50.466 494.642,50.077 494.850,49.792 C495.820,48.464 495.929,46.731 496.459,45.204 C496.960,43.760 497.624,42.372 498.172,40.942 C499.222,38.202 499.908,35.093 501.352,32.538 C501.993,31.403 503.086,31.010 504.133,31.132 C505.171,30.997 506.246,31.361 506.906,32.528 C508.998,36.225 511.721,39.851 514.960,42.640 C515.627,43.214 514.918,44.379 514.106,44.114 C512.125,43.466 510.095,42.525 508.191,41.359 C509.913,48.336 511.635,55.312 513.357,62.289 C519.612,60.759 525.866,59.229 532.120,57.699 C530.464,56.364 529.099,54.743 528.380,52.574 C528.225,52.106 528.647,51.515 529.152,51.557 C532.982,51.871 536.046,53.913 539.554,55.280 C539.874,55.405 540.140,55.562 540.382,55.733 C542.982,55.612 544.001,59.512 541.566,60.510 ZM491.569,224.922 C493.628,229.232 492.516,233.283 493.622,237.604 C494.861,242.445 501.620,240.426 505.006,242.900 C507.703,244.871 509.000,248.891 507.760,252.011 C506.327,255.616 503.006,256.450 499.513,256.787 C493.060,257.410 486.885,258.529 480.614,259.965 C482.354,270.420 477.612,282.718 468.570,288.255 C459.643,293.722 446.955,293.338 438.543,287.039 C436.815,285.744 435.295,284.319 433.940,282.807 C430.618,288.589 430.143,297.326 429.275,303.406 C429.113,304.542 427.851,305.155 426.865,305.247 C419.446,305.942 409.058,305.992 409.818,296.101 C410.015,293.535 411.121,290.327 409.927,287.900 C409.024,286.066 406.779,284.451 405.229,283.180 C402.616,281.038 399.813,279.094 396.957,277.292 C395.000,276.057 395.614,272.407 398.218,272.618 C408.104,273.419 417.698,272.146 427.024,268.990 C425.804,262.860 426.489,256.289 429.036,249.978 C429.087,249.782 429.157,249.584 429.263,249.384 C429.357,249.161 429.472,248.980 429.597,248.817 C433.952,241.260 443.617,237.931 451.877,238.499 C456.175,238.794 460.671,239.811 464.808,241.578 C468.887,233.912 472.621,226.488 474.585,217.885 C474.830,216.813 475.937,216.052 476.996,216.044 C483.066,215.998 488.936,219.411 491.569,224.922 ZM473.501,274.752 C474.395,272.842 475.074,270.759 475.498,268.527 C476.394,263.799 475.736,259.684 473.988,256.222 C473.366,258.943 473.174,261.629 473.187,264.692 C473.202,268.190 473.038,271.450 473.501,274.752 ZM428.425,273.829 C421.423,276.213 414.251,277.561 406.938,277.826 C410.131,280.149 413.073,282.838 414.567,285.982 C415.415,287.765 415.475,289.694 415.343,291.622 C416.284,290.762 417.244,289.924 418.233,289.125 C420.330,287.429 422.999,286.593 425.024,284.825 C425.040,284.811 425.068,284.830 425.055,284.849 C421.916,289.171 418.216,293.171 415.659,297.897 C415.436,298.310 415.157,298.596 414.851,298.791 C414.949,299.042 415.082,299.266 415.257,299.452 C416.764,301.060 421.462,300.771 424.677,300.456 C425.642,293.287 426.605,284.603 430.780,278.582 C429.841,277.059 429.059,275.470 428.425,273.829 ZM433.580,251.915 C431.019,257.967 430.819,264.797 432.726,270.816 C432.657,266.480 433.482,262.119 434.405,257.681 C435.071,254.480 435.920,250.634 437.502,247.328 C435.913,248.537 434.560,250.050 433.580,251.915 ZM454.137,243.766 C450.158,243.164 445.619,243.486 441.677,245.025 C440.403,249.628 439.084,254.076 438.462,258.966 C437.655,265.307 435.565,272.773 437.220,279.051 C437.230,279.087 437.231,279.120 437.238,279.156 C438.981,281.249 441.106,283.028 443.586,284.367 C441.754,277.023 443.555,268.753 445.765,261.697 C447.418,256.423 449.536,247.774 454.340,243.800 C454.272,243.790 454.205,243.776 454.137,243.766 ZM456.337,244.171 C455.268,246.547 453.867,248.766 452.973,251.253 C451.828,254.437 450.922,257.777 450.020,261.038 C447.996,268.355 445.337,278.293 448.656,285.507 C448.793,285.805 448.856,286.096 448.874,286.378 C449.220,286.462 449.566,286.546 449.922,286.614 C452.780,287.162 455.513,287.189 458.065,286.767 C456.466,283.911 455.024,281.405 454.719,277.772 C454.370,273.619 454.317,269.246 455.134,265.149 C455.962,261.001 457.336,256.734 458.941,252.820 C460.006,250.224 461.420,248.306 463.023,246.353 C460.929,245.404 458.676,244.674 456.337,244.171 ZM463.369,253.007 C462.429,256.389 461.960,259.946 461.237,263.378 C460.399,267.362 460.167,271.180 460.316,275.229 C460.462,279.162 461.763,281.940 463.129,285.238 C465.705,284.073 467.988,282.380 469.890,280.255 C467.440,274.975 468.106,269.018 468.653,263.352 C468.971,260.060 469.715,255.831 472.019,253.137 C470.263,250.909 467.996,249.042 465.392,247.556 C464.770,249.369 463.897,251.110 463.369,253.007 ZM478.889,221.208 C476.757,229.301 473.167,236.506 469.255,243.865 C473.643,246.565 477.260,250.295 479.245,255.102 C483.033,254.179 486.841,253.260 490.689,252.690 C493.748,252.237 497.111,252.446 500.099,251.720 C503.198,251.307 503.972,250.042 502.438,247.931 C502.363,247.956 502.301,247.991 502.219,248.012 C498.790,248.862 495.384,249.784 491.957,250.650 C488.490,251.525 485.093,251.060 481.598,251.452 C481.401,251.474 481.337,251.175 481.499,251.087 C486.050,248.614 491.462,247.958 496.128,245.693 C495.473,245.551 494.824,245.376 494.172,245.109 C488.064,242.608 488.994,237.733 488.430,232.224 C488.232,230.288 487.680,228.479 486.825,226.903 C486.433,227.535 485.889,228.407 485.696,228.758 C485.168,229.720 484.699,230.693 484.087,231.608 C482.617,233.807 480.754,235.664 479.430,237.975 C479.397,238.032 479.299,237.993 479.323,237.930 C480.238,235.459 481.384,233.064 482.523,230.691 C483.234,229.209 483.636,227.919 484.054,226.354 C484.231,225.692 484.672,224.918 484.836,224.214 C483.274,222.642 481.259,221.572 478.889,221.208 ZM445.282,177.336 C434.054,179.919 422.789,182.347 411.523,184.757 C406.965,185.732 402.492,187.000 397.890,185.342 C393.472,183.750 390.566,179.981 389.058,175.648 C387.134,170.121 386.230,163.098 386.149,157.207 C385.993,146.014 398.755,146.095 407.048,144.113 C410.219,143.355 413.792,142.870 416.802,141.542 C423.159,138.739 420.569,131.032 418.370,125.996 C416.285,121.159 412.872,112.232 417.807,107.873 C419.880,106.042 423.217,105.910 425.807,105.344 C429.349,104.571 432.882,103.754 436.411,102.926 C438.597,102.414 440.809,101.956 442.976,101.368 C442.872,101.378 444.435,100.882 445.066,100.763 C449.155,99.994 452.447,102.456 454.217,105.991 C456.731,111.010 456.787,117.606 457.614,123.099 C458.579,129.514 459.571,135.926 460.571,142.336 C461.529,148.481 463.030,154.764 463.608,160.954 C463.999,165.133 462.816,169.387 459.607,172.241 C455.814,175.614 450.057,176.238 445.282,177.336 ZM456.441,148.001 C454.793,137.482 453.141,126.961 451.622,116.422 C451.120,112.939 450.952,105.974 446.397,105.598 C445.195,105.499 444.209,106.197 442.397,106.629 C437.510,107.795 432.618,108.944 427.711,110.023 C425.092,110.598 421.317,110.527 420.465,113.455 C419.603,116.417 421.558,120.889 422.675,123.481 C426.350,131.898 428.278,142.802 417.701,146.506 C414.690,147.561 411.469,148.179 408.374,148.919 C404.628,149.813 400.846,150.548 397.102,151.445 C395.579,151.811 393.173,152.130 392.028,153.368 C389.687,155.899 391.617,162.235 392.049,165.125 C392.827,170.336 393.209,177.334 398.458,180.163 C401.960,182.050 405.641,180.925 409.243,180.156 C418.438,178.191 427.627,176.203 436.802,174.151 C444.072,172.524 459.155,172.037 458.693,161.932 C458.484,157.356 457.149,152.514 456.441,148.001 ZM444.050,113.860 C438.294,115.152 432.276,115.209 426.406,115.359 C426.362,115.361 426.352,115.291 426.395,115.283 C432.152,114.160 437.555,112.227 443.067,110.294 C445.316,109.505 446.383,113.337 444.050,113.860 ZM431.117,153.161 C430.289,154.214 429.461,155.267 428.634,156.319 C429.929,156.007 431.221,155.682 432.518,155.378 C434.228,154.976 438.071,154.802 439.166,153.246 C440.038,152.005 439.545,149.802 439.334,148.403 C438.555,143.256 437.180,138.138 436.114,133.041 C435.458,129.907 440.265,128.580 440.921,131.717 C442.199,137.819 444.579,144.493 444.567,150.783 C444.558,155.896 441.967,158.276 437.248,159.398 C434.993,159.934 432.738,160.465 430.484,161.000 C431.488,161.395 432.493,161.790 433.497,162.185 C436.454,163.347 435.159,168.164 432.172,166.990 C428.667,165.613 425.162,164.235 421.658,162.857 C420.172,162.512 419.484,160.777 420.110,159.319 C420.249,158.939 420.462,158.600 420.747,158.343 C423.028,155.441 425.310,152.539 427.591,149.637 C429.573,147.117 433.078,150.667 431.117,153.161 ZM390.032,91.118 C386.450,89.855 384.731,85.312 384.964,81.763 C385.341,75.993 391.520,75.115 396.043,76.406 C396.504,76.537 396.856,76.764 397.129,77.040 C397.134,77.043 397.139,77.046 397.143,77.049 C400.999,80.063 400.243,85.802 397.241,89.155 C395.495,91.106 392.522,91.996 390.032,91.118 ZM394.129,81.103 C393.908,81.056 393.689,80.999 393.467,80.958 C393.413,80.948 393.388,80.943 393.358,80.937 C393.338,80.935 393.331,80.935 393.307,80.932 C393.076,80.908 392.845,80.887 392.614,80.875 C392.165,80.852 391.708,80.845 391.260,80.892 C391.132,80.906 391.373,80.863 390.941,80.958 C390.788,80.992 390.641,81.042 390.494,81.092 C390.524,81.092 390.357,81.171 390.226,81.241 C390.215,81.286 390.094,81.433 390.111,81.373 C390.001,81.598 389.940,81.857 389.931,82.280 C389.915,83.035 390.127,83.837 390.366,84.547 C390.698,85.536 391.206,86.237 391.782,86.417 C391.886,86.429 392.111,86.463 392.171,86.460 C392.218,86.458 392.237,86.458 392.270,86.457 C392.307,86.446 392.366,86.431 392.467,86.410 C393.000,86.299 392.794,86.429 393.345,86.002 C393.361,85.990 393.368,85.985 393.381,85.975 C393.388,85.967 393.395,85.958 393.413,85.939 C393.539,85.810 393.626,85.748 393.714,85.616 C394.042,85.125 394.341,84.627 394.542,84.069 C394.981,82.852 394.868,81.933 394.129,81.103 ZM389.226,44.038 C387.122,50.663 388.190,56.466 390.484,62.799 C392.435,68.185 391.877,77.958 383.708,76.931 C377.794,76.189 375.290,68.116 374.141,63.234 C371.986,54.071 374.573,44.986 378.150,36.539 C379.364,33.672 380.708,30.867 381.978,28.026 C382.874,26.024 384.278,24.643 383.017,22.565 C381.985,20.864 381.496,20.946 379.543,20.928 C373.843,20.876 368.882,23.235 367.826,29.117 C367.427,34.623 366.681,47.053 357.728,42.453 C351.219,39.109 354.306,28.072 356.578,23.070 C361.942,11.264 380.132,1.001 392.414,9.209 C398.758,13.448 398.683,21.899 396.336,28.388 C394.380,33.794 390.968,38.554 389.226,44.038 ZM389.157,13.063 C384.423,10.273 377.446,11.679 372.710,13.747 C365.855,16.741 361.007,22.946 359.449,30.238 C359.090,31.918 357.851,39.129 361.355,37.850 C363.291,37.143 362.738,30.460 362.864,28.771 C362.876,28.613 362.908,28.468 362.942,28.326 C362.947,28.252 362.942,28.182 362.953,28.105 C364.104,20.516 370.120,16.835 377.344,16.071 C382.865,15.488 390.021,17.401 388.720,24.425 C387.978,28.429 385.408,32.381 383.760,36.076 C381.857,40.346 380.076,44.719 379.075,49.303 C377.683,55.680 378.192,62.369 381.125,68.254 C382.796,71.607 386.671,73.973 386.728,67.904 C386.764,64.103 383.871,59.965 383.298,56.125 C382.090,48.019 384.780,40.750 388.432,33.676 C391.293,28.135 396.607,17.454 389.157,13.063 ZM361.978,83.642 C362.874,85.656 363.774,87.727 362.824,89.900 C360.650,94.872 354.648,93.329 351.355,90.627 C346.142,86.349 343.240,80.112 340.547,74.085 C337.436,67.120 333.721,60.486 330.379,53.637 C327.982,48.726 322.994,40.697 324.800,34.999 C325.853,31.676 330.045,28.337 333.549,30.278 C336.170,31.730 337.344,35.736 338.647,38.250 C340.708,42.226 342.779,46.196 344.846,50.169 C348.765,57.705 352.653,65.257 356.485,72.838 C358.300,76.427 360.345,79.968 361.978,83.642 ZM352.179,75.364 C347.478,66.064 342.683,56.814 337.872,47.570 C336.694,45.306 335.515,43.042 334.341,40.776 C333.659,39.460 331.932,34.064 329.786,36.031 C328.524,37.189 330.867,42.361 331.400,43.732 C332.375,46.243 333.504,48.692 334.685,51.112 C338.711,59.352 342.809,67.541 346.795,75.801 C347.691,77.658 348.640,79.495 349.760,81.228 C350.640,82.589 353.658,87.491 355.597,87.585 C357.963,87.699 357.150,85.672 356.881,84.627 C356.618,83.605 355.788,82.486 355.308,81.542 C354.261,79.484 353.221,77.424 352.179,75.364 ZM312.361,481.458 C310.783,480.345 310.406,478.164 311.519,476.586 C312.632,475.008 314.814,474.631 316.392,475.744 C317.970,476.857 318.347,479.038 317.234,480.616 C316.121,482.194 313.939,482.571 312.361,481.458 ZM290.237,346.616 C293.476,347.478 296.715,348.339 299.955,349.201 C302.566,349.896 305.555,350.395 307.859,351.872 C313.859,355.718 312.075,364.892 305.654,367.283 C301.822,368.710 297.780,367.137 294.022,366.224 C291.656,365.650 289.289,365.075 286.922,364.500 C286.922,364.500 286.922,364.500 286.922,364.500 C284.726,363.976 282.531,363.452 280.335,362.929 C278.868,368.435 277.401,373.941 275.935,379.447 C279.462,383.234 279.727,389.337 277.048,393.710 C273.794,399.023 266.936,400.000 261.294,398.677 C248.968,395.787 249.335,375.774 262.047,375.207 C263.466,370.049 264.886,364.891 266.305,359.733 C261.229,358.202 256.154,356.670 251.078,355.139 C246.431,353.737 241.175,351.653 241.121,345.860 C241.000,332.809 255.084,337.262 262.396,339.208 C263.065,339.386 263.735,339.564 264.405,339.742 C266.060,323.501 268.326,307.191 271.921,291.280 C274.290,280.793 277.440,271.181 284.159,262.600 C289.910,255.253 297.236,248.553 305.262,243.709 C306.438,242.999 307.986,243.466 308.682,244.605 C318.000,259.854 315.414,279.812 310.049,295.784 C304.266,313.005 297.526,329.966 290.237,346.616 ZM264.527,380.190 C264.335,380.236 264.139,380.263 263.941,380.243 C263.755,380.225 263.580,380.222 263.402,380.215 C262.615,380.255 261.852,380.340 261.141,380.465 C254.978,382.268 256.440,392.882 263.502,394.023 C267.565,394.679 272.316,393.771 273.589,389.248 C274.056,387.587 273.922,385.876 273.238,384.396 C273.182,384.314 273.121,384.242 273.071,384.149 C271.500,381.229 267.924,380.225 264.527,380.190 ZM275.470,361.768 C274.050,361.430 272.631,361.091 271.211,360.753 C269.863,365.650 268.515,370.547 267.168,375.444 C268.676,375.647 270.153,376.014 271.524,376.577 C272.840,371.640 274.155,366.704 275.470,361.768 ZM261.067,344.026 C258.244,343.275 255.404,342.330 252.538,341.757 C251.574,341.564 250.703,341.318 249.691,341.522 C245.103,342.446 245.483,347.696 249.154,349.336 C253.934,351.471 259.326,352.770 264.558,354.129 C264.779,354.124 265.007,354.138 265.252,354.196 C269.767,355.273 274.282,356.350 278.797,357.427 C278.938,357.438 279.080,357.454 279.220,357.488 C283.843,358.611 288.465,359.734 293.088,360.857 C295.890,361.538 300.759,363.816 303.732,362.658 C307.867,361.048 306.994,356.578 303.379,355.282 C302.938,355.124 302.449,355.041 301.997,354.916 C298.828,354.040 295.640,353.225 292.462,352.379 C281.997,349.595 271.532,346.810 261.067,344.026 ZM305.617,249.411 C298.591,254.032 292.150,260.122 287.197,266.797 C280.986,275.170 278.414,284.778 276.255,294.819 C272.984,310.030 270.826,325.551 269.272,341.038 C274.639,342.466 280.006,343.894 285.373,345.322 C292.250,329.675 298.590,313.736 304.162,297.584 C309.314,282.651 313.265,264.309 305.617,249.411 ZM290.647,301.092 C289.064,307.093 287.521,313.106 285.940,319.108 C284.423,324.869 282.274,330.458 281.064,336.296 C280.379,339.598 275.117,338.198 275.979,334.895 C278.952,323.502 282.661,312.024 286.467,300.880 C288.330,295.426 290.669,290.144 292.220,284.588 C293.519,279.935 296.532,275.728 297.272,270.983 C297.282,270.916 297.389,270.934 297.387,270.998 C297.263,276.082 294.746,280.725 294.049,285.738 C293.322,290.976 291.993,295.990 290.647,301.092 ZM285.680,203.145 C274.164,193.628 262.918,183.736 251.548,174.032 C236.487,183.371 218.504,181.981 206.012,168.555 C184.986,145.959 203.334,109.007 233.173,109.000 C248.067,108.997 261.626,118.122 266.608,132.306 C269.661,140.996 269.183,149.559 265.967,157.105 C272.991,162.983 280.016,168.860 287.040,174.738 C292.271,179.114 299.065,183.293 303.147,188.895 C306.994,194.173 306.730,201.232 301.191,205.293 C296.149,208.989 290.070,206.773 285.680,203.145 ZM255.219,122.936 C243.997,111.827 225.891,111.303 213.727,121.041 C201.787,130.600 197.567,147.829 206.348,160.992 C210.780,167.635 217.836,172.810 225.584,174.692 C234.394,176.830 243.182,173.689 250.492,168.753 C257.998,163.230 263.325,155.402 263.704,145.836 C264.030,137.586 261.122,128.780 255.219,122.936 ZM300.771,195.400 C300.307,192.581 298.258,190.661 296.220,188.915 C289.037,182.762 281.762,176.712 274.484,170.669 C273.829,171.588 273.193,172.514 272.352,173.316 C270.980,174.623 269.640,175.152 267.964,175.885 C267.824,175.946 267.691,175.791 267.799,175.669 C268.754,174.586 269.613,173.007 270.289,171.712 C270.805,170.725 271.391,169.454 271.599,168.273 C268.940,166.066 266.285,163.854 263.632,161.641 C261.547,165.065 258.859,168.208 255.655,170.971 C261.121,175.622 266.588,180.273 272.054,184.923 C277.233,189.329 282.466,193.679 287.594,198.145 C288.923,199.302 290.176,200.465 291.782,201.253 C296.004,203.325 301.663,200.820 300.771,195.400 ZM225.915,167.702 C211.158,164.534 204.964,150.625 210.175,136.662 C214.822,124.210 229.160,116.600 241.950,120.933 C253.310,124.782 258.564,137.033 256.037,148.401 C252.943,162.321 239.428,169.831 225.915,167.702 ZM240.944,125.910 C230.807,122.072 218.852,128.041 214.978,137.996 C213.007,143.060 212.304,149.767 214.946,154.737 C217.451,159.450 222.256,161.791 227.239,162.861 C238.138,164.578 248.836,158.114 251.234,147.066 C253.098,138.484 249.435,129.124 240.944,125.910 ZM235.558,133.388 C228.789,133.046 220.553,137.443 218.740,144.303 C218.723,144.366 218.619,144.355 218.625,144.288 C219.473,135.121 226.555,128.956 235.558,128.760 C238.527,128.695 238.502,133.537 235.558,133.388 ZM243.146,63.372 C241.167,61.976 240.695,59.241 242.090,57.262 C243.486,55.283 246.222,54.810 248.200,56.206 C250.179,57.602 250.652,60.337 249.256,62.316 C247.860,64.295 245.125,64.767 243.146,63.372 ZM141.112,305.578 C142.936,307.203 144.294,309.162 144.400,311.736 C144.688,318.781 137.653,321.741 132.012,319.680 C125.915,327.550 119.817,335.420 113.719,343.291 C115.889,347.560 114.411,353.057 108.719,353.582 C104.181,354.001 101.206,350.644 97.868,348.113 C94.884,345.851 90.297,343.644 90.173,339.382 C90.025,334.296 94.721,331.341 99.088,332.377 C100.768,329.963 102.448,327.550 104.128,325.137 C102.912,324.973 101.747,324.571 100.463,323.956 C98.733,323.128 97.310,321.884 97.560,319.820 C97.989,316.287 102.138,312.623 105.092,311.008 C105.999,310.512 107.066,310.664 107.823,311.360 C109.028,312.467 110.184,313.621 111.342,314.775 C112.937,312.484 114.532,310.193 116.127,307.902 C112.558,303.719 112.528,296.383 118.754,294.369 C121.071,293.620 123.565,294.318 125.971,295.544 C134.981,283.883 143.990,272.223 152.999,260.561 C162.995,247.625 172.989,234.687 182.985,221.750 C185.663,218.286 192.227,211.396 195.591,217.868 C197.901,222.311 193.875,227.211 191.491,230.751 C174.698,255.694 157.905,280.636 141.112,305.578 ZM105.926,315.821 C104.285,317.054 102.976,318.695 101.751,320.318 C101.745,320.326 101.743,320.330 101.737,320.337 C101.930,320.489 102.139,320.625 102.338,320.752 C103.100,321.240 103.963,321.534 104.754,321.962 C105.192,322.199 105.541,322.430 105.836,322.684 C106.782,321.325 107.727,319.967 108.673,318.609 C107.763,317.674 106.849,316.743 105.926,315.821 ZM125.221,301.095 C125.156,301.053 125.108,301.003 125.050,300.959 C124.755,300.777 124.462,300.590 124.165,300.413 C122.525,299.439 119.813,297.531 118.665,301.361 C118.187,302.954 119.412,304.579 120.687,305.373 C121.762,306.043 122.371,307.659 121.584,308.790 C115.114,318.084 108.644,327.378 102.173,336.672 C102.001,336.919 101.802,337.107 101.593,337.267 C100.887,337.941 99.841,338.222 98.751,337.568 C97.153,336.610 95.823,340.044 95.247,339.982 C95.592,340.303 96.313,340.705 96.512,340.857 C98.193,342.146 99.889,343.418 101.577,344.698 C103.003,345.779 104.432,347.179 106.002,348.053 C106.511,348.337 106.422,348.404 106.326,348.417 C106.388,348.420 106.486,348.428 106.687,348.453 C108.940,348.736 110.572,346.819 108.908,344.934 C107.918,343.813 108.039,342.524 108.908,341.402 C115.384,333.044 121.859,324.686 128.335,316.328 C127.779,315.857 127.266,315.352 126.826,314.832 C125.489,313.256 123.638,311.415 122.960,309.444 C122.939,309.385 123.001,309.336 123.056,309.348 C124.993,309.790 126.564,311.452 128.333,312.358 C129.588,313.001 130.836,313.608 132.093,314.200 C132.259,314.254 132.418,314.318 132.554,314.404 C132.594,314.430 132.634,314.444 132.674,314.468 C133.040,314.638 133.405,314.808 133.775,314.975 C137.751,316.311 141.333,312.099 137.326,308.901 C137.146,308.758 136.949,308.629 136.762,308.492 C136.653,308.444 136.543,308.400 136.438,308.332 C132.699,305.920 128.960,303.507 125.221,301.095 ZM191.164,220.445 C190.791,220.208 188.744,222.518 188.438,222.850 C188.640,222.631 187.637,223.842 187.014,224.649 C185.530,226.569 184.047,228.489 182.563,230.409 C165.112,252.996 147.661,275.583 130.210,298.170 C131.594,299.137 132.881,300.095 133.999,300.816 C133.999,300.816 134.000,300.816 134.000,300.816 C134.937,301.421 135.985,302.033 137.044,302.682 C144.407,291.747 151.769,280.812 159.132,269.876 C168.389,256.126 177.647,242.376 186.905,228.626 C187.817,227.271 188.806,225.942 189.652,224.545 C189.817,224.273 189.996,224.029 190.146,223.746 C190.240,223.568 191.641,220.748 191.164,220.445 ZM179.219,212.035 C179.319,208.071 179.243,204.102 179.457,200.162 C179.464,200.033 179.653,199.999 179.687,200.131 C180.668,203.997 182.444,207.608 183.403,211.470 C184.174,214.571 179.142,215.069 179.219,212.035 ZM167.523,230.624 C170.010,233.165 165.201,236.250 163.931,233.390 C162.155,229.389 161.747,225.032 159.820,221.103 C159.786,221.034 159.877,220.984 159.921,221.044 C162.364,224.293 164.666,227.705 167.523,230.624 ZM134.082,272.343 C132.822,271.151 131.976,269.487 131.059,268.034 C130.471,267.102 129.750,266.323 129.044,265.472 C128.115,264.353 127.391,263.094 126.575,261.892 C126.510,261.795 126.640,261.670 126.736,261.732 C128.851,263.090 131.032,264.295 133.073,265.774 C134.339,266.692 135.610,267.871 137.062,268.488 C137.841,268.819 138.264,269.824 138.280,270.608 C138.291,271.204 138.044,271.966 137.560,272.343 C136.486,273.180 135.134,273.339 134.082,272.343 ZM151.752,248.495 C154.204,250.436 150.285,254.164 148.100,251.309 C146.918,249.765 146.160,247.877 145.289,246.149 C144.756,245.090 144.028,244.243 143.319,243.302 C142.794,242.606 142.441,241.796 141.926,241.109 C141.912,241.090 141.941,241.070 141.956,241.085 C143.474,242.555 145.616,243.710 147.324,244.940 C148.854,246.042 150.274,247.324 151.752,248.495 ZM139.500,155.000 C138.119,155.000 137.000,153.881 137.000,152.500 C137.000,151.119 138.119,150.000 139.500,150.000 C140.881,150.000 142.000,151.119 142.000,152.500 C142.000,153.881 140.881,155.000 139.500,155.000 ZM123.239,284.479 C127.155,283.539 126.665,290.399 122.702,288.580 C118.857,286.816 114.628,285.740 111.017,283.521 C110.955,283.482 110.975,283.369 111.056,283.375 C113.025,283.528 114.982,283.744 116.948,283.923 C118.953,284.106 121.272,284.952 123.239,284.479 ZM149.860,109.622 C133.651,110.456 133.107,87.496 123.762,78.844 C117.634,73.170 106.886,75.486 101.466,81.120 C96.946,85.818 93.903,92.395 90.097,97.696 C84.211,105.893 79.195,113.994 67.540,110.103 C61.325,108.028 55.275,103.456 54.149,96.634 C52.986,89.589 56.164,82.026 58.026,75.386 C61.874,61.659 65.610,47.901 69.529,34.194 C72.012,22.012 92.086,22.100 99.136,29.487 C101.417,31.876 102.717,34.048 106.167,34.918 C107.794,35.327 109.691,35.583 111.661,35.693 C114.120,31.791 117.313,25.923 116.053,21.543 C114.841,17.332 109.801,14.508 108.005,10.389 C106.586,7.132 106.358,3.555 106.928,-0.000 L112.109,-0.000 C110.758,6.660 113.548,10.175 117.743,15.107 C123.033,21.327 121.069,28.953 117.494,35.567 C119.079,35.409 120.598,35.159 121.928,34.788 C126.058,33.636 128.507,29.645 132.517,28.052 C136.418,26.502 140.351,26.875 144.412,27.392 C149.626,28.056 153.729,29.614 156.299,34.557 C159.414,40.551 159.796,48.352 161.015,54.943 C163.177,66.639 165.322,78.347 167.662,90.009 C168.496,94.166 168.994,98.502 166.191,102.092 C162.870,106.344 155.113,109.352 149.860,109.622 ZM162.215,87.990 C159.966,76.291 157.731,64.587 155.585,52.868 C154.567,47.305 154.508,38.434 150.146,34.438 C146.207,30.830 136.464,31.192 132.437,33.675 C129.824,35.286 128.124,37.715 125.231,38.940 C122.446,40.118 119.349,40.285 116.367,40.401 C110.590,40.627 103.561,40.911 98.901,36.804 C97.311,35.403 96.315,33.413 94.658,32.090 C92.326,30.227 89.183,29.862 86.311,29.735 C81.971,29.542 75.413,30.218 74.331,35.527 C70.485,48.977 66.786,62.468 63.044,75.948 C61.301,82.226 56.744,91.719 59.745,98.209 C62.687,104.570 73.172,108.556 79.026,104.169 C79.159,104.069 79.241,104.011 79.300,103.971 C79.798,103.444 80.213,102.759 80.646,102.182 C82.384,99.859 84.105,97.522 85.797,95.166 C89.174,90.463 92.005,85.386 95.386,80.705 C101.797,71.826 115.878,66.748 125.439,73.765 C130.303,77.335 133.096,83.083 135.588,88.427 C138.212,94.055 141.013,103.928 148.221,104.631 C153.835,105.179 163.632,100.810 163.406,94.501 C163.330,92.385 162.614,90.070 162.215,87.990 ZM150.178,99.455 C150.110,99.412 150.141,99.315 150.217,99.309 C161.129,98.454 153.605,82.260 152.998,76.324 C152.731,73.710 156.882,73.684 157.083,76.324 C157.556,82.535 161.000,89.116 158.014,95.134 C156.636,97.912 153.513,101.562 150.178,99.455 ZM143.963,62.702 C143.138,61.902 142.751,60.699 142.880,59.558 C142.833,59.229 142.852,58.895 142.955,58.579 C143.330,57.428 144.192,56.612 145.217,56.253 C145.844,55.939 146.531,55.754 147.184,55.756 C149.205,55.761 150.679,57.437 150.722,59.415 C150.754,60.892 149.975,62.471 148.676,63.213 C147.181,64.065 145.223,63.923 143.963,62.702 ZM137.228,53.665 C135.581,53.238 134.205,51.581 134.223,49.843 C134.229,49.306 134.346,48.809 134.538,48.353 C134.573,48.252 134.620,48.156 134.664,48.059 C134.669,48.050 134.672,48.041 134.677,48.032 C135.153,47.001 136.074,46.204 137.210,45.905 C138.847,45.473 140.714,46.182 141.606,47.639 C142.399,48.937 142.339,50.623 141.568,51.916 C140.669,53.425 138.903,54.099 137.228,53.665 ZM137.675,65.070 C139.556,65.775 140.713,67.470 140.337,69.516 C140.013,71.279 138.344,72.539 136.590,72.463 C135.845,72.430 135.147,72.170 134.568,71.753 C134.332,71.653 134.104,71.529 133.892,71.372 C133.831,71.327 133.783,71.271 133.725,71.223 C132.999,70.833 132.476,70.071 132.383,69.244 C132.038,68.126 132.190,66.889 133.063,65.893 C134.137,64.665 136.227,64.527 137.675,65.070 ZM129.576,60.069 C128.228,61.497 126.169,61.631 124.474,60.789 C123.340,60.225 122.622,59.208 122.363,58.053 C122.328,57.920 122.304,57.784 122.284,57.647 C122.281,57.627 122.278,57.607 122.276,57.586 C122.261,57.478 122.237,57.371 122.232,57.261 C122.220,56.986 122.252,56.721 122.302,56.461 C122.312,56.390 122.313,56.319 122.326,56.248 C122.627,54.652 123.891,53.420 125.393,52.927 C126.941,52.418 128.909,52.712 130.100,53.870 C131.203,54.942 131.312,56.707 130.519,57.930 C130.449,58.704 130.150,59.459 129.576,60.069 ZM98.198,66.267 C96.234,67.319 94.378,66.303 92.513,66.862 C90.309,67.522 90.037,71.749 88.198,73.492 C85.813,75.751 81.847,75.596 79.831,72.837 C77.916,70.218 80.599,64.605 79.108,63.563 C78.239,62.955 76.062,63.057 74.996,62.626 C73.660,62.087 72.371,61.372 71.564,60.125 C69.856,57.485 71.166,53.416 74.170,52.366 C75.318,51.965 76.343,52.153 77.487,52.350 C80.056,52.792 81.851,53.677 81.970,50.398 C81.977,50.186 82.008,49.991 82.055,49.807 C82.058,49.781 82.055,49.758 82.058,49.732 C82.644,45.772 85.862,41.624 90.234,43.800 C91.969,44.663 92.959,46.276 93.314,48.151 C93.527,49.279 93.383,50.376 93.285,51.505 C93.114,53.475 92.465,54.282 94.144,55.306 C97.157,57.144 101.489,56.988 101.011,61.936 C100.830,63.802 99.848,65.383 98.198,66.267 ZM94.652,60.627 C94.096,60.207 93.015,60.247 92.372,60.016 C91.049,59.540 89.871,59.066 88.977,57.915 C87.982,56.632 87.795,55.232 87.874,53.638 C87.893,53.248 88.768,50.274 88.467,49.930 C87.347,48.646 87.068,49.531 86.948,50.367 C86.947,50.378 86.950,50.387 86.950,50.398 C86.840,53.418 86.351,56.744 83.046,57.791 C81.801,58.186 75.822,57.043 75.727,57.406 C75.580,57.964 80.845,58.851 81.497,59.146 C84.122,60.335 85.053,62.663 84.671,65.428 C84.504,66.637 83.313,68.316 84.504,69.055 C85.624,69.749 85.427,68.675 85.912,67.857 C86.254,67.279 86.333,66.410 86.608,65.791 C87.984,62.702 89.844,61.855 93.058,61.918 C94.067,61.937 97.322,62.646 94.652,60.627 ZM78.403,94.564 C81.370,91.362 82.938,87.180 85.366,83.600 C86.769,81.532 90.143,83.558 88.692,85.557 C84.927,90.746 81.707,96.992 75.638,99.827 C70.990,101.997 67.784,99.529 64.276,96.557 C64.173,96.469 64.307,96.306 64.418,96.372 C69.755,99.560 73.985,99.332 78.403,94.564 ZM88.688,188.036 C96.612,191.402 103.317,194.769 108.361,202.223 C108.991,203.155 108.683,204.492 107.971,205.262 C95.666,218.558 82.393,231.217 68.236,242.490 C51.833,255.551 34.808,267.610 19.418,281.946 C18.656,282.656 17.319,282.993 16.402,282.338 C14.196,280.761 11.694,279.323 9.667,277.524 C7.982,276.028 8.009,274.998 8.098,272.821 C8.515,262.524 10.715,252.978 16.187,244.177 C19.556,238.758 22.282,233.314 24.684,227.379 C25.600,225.118 26.342,222.811 27.535,220.707 C31.898,213.008 34.432,204.662 37.803,196.514 C32.002,188.659 35.170,177.426 44.827,174.111 C50.982,171.999 55.519,174.181 61.036,176.469 C70.265,180.297 79.492,184.129 88.688,188.036 ZM34.615,218.442 C34.144,219.379 33.634,220.301 33.101,221.208 C39.756,223.984 49.621,223.320 52.698,215.466 C54.952,209.713 47.598,202.138 41.221,201.337 C39.080,207.070 37.353,212.994 34.615,218.442 ZM41.429,193.053 C42.146,192.977 42.864,192.947 43.581,192.967 C44.608,192.634 45.642,192.311 46.729,192.242 C49.266,192.080 51.516,192.967 53.937,193.624 C58.959,194.987 63.978,196.164 68.482,198.899 C75.013,202.866 84.215,202.059 88.642,209.148 C88.654,209.167 88.626,209.189 88.612,209.172 C85.144,205.202 80.401,205.923 75.685,205.491 C72.466,205.197 70.063,204.392 67.325,202.712 C62.549,199.781 57.346,198.797 52.102,197.092 C49.947,196.391 48.214,195.896 46.161,196.073 C45.130,196.437 44.055,196.727 42.968,196.841 C42.930,197.006 42.881,197.172 42.808,197.341 C42.658,197.690 42.521,198.046 42.376,198.397 C49.219,197.111 58.172,207.549 57.570,213.995 C57.030,219.770 51.810,223.907 46.831,225.937 C41.511,228.107 36.081,226.980 31.063,224.484 C29.948,226.895 29.150,229.565 28.134,231.992 C24.603,240.430 18.539,247.816 15.666,256.471 C14.037,261.379 13.316,266.661 13.098,271.871 C14.448,270.816 15.243,269.145 16.447,267.843 C17.951,266.217 19.979,265.279 21.505,263.690 C24.225,260.861 26.761,258.335 29.689,255.977 C23.986,249.898 27.020,240.056 34.003,236.455 C38.790,233.986 51.650,231.937 53.336,239.395 C54.673,238.206 55.972,236.939 57.216,235.554 C57.280,235.483 57.410,235.557 57.378,235.649 C54.087,245.141 43.352,249.346 35.700,254.495 C32.675,256.531 29.636,258.663 26.978,261.174 C25.034,263.010 23.588,265.238 21.571,266.996 C19.424,268.869 17.955,270.370 16.414,272.809 C15.893,273.634 15.387,274.389 14.794,275.063 C15.687,275.701 16.580,276.340 17.473,276.978 C32.449,263.266 48.843,251.541 64.716,238.944 C78.327,228.143 91.090,216.002 102.978,203.283 C101.547,201.467 99.954,199.964 98.229,198.670 C95.701,197.630 92.675,197.764 90.366,199.333 C85.950,202.334 88.343,207.142 90.432,210.732 C90.455,210.771 90.402,210.812 90.371,210.780 C86.839,207.127 83.393,201.275 87.514,196.593 C88.337,195.658 89.425,194.884 90.640,194.313 C89.636,193.851 88.613,193.403 87.569,192.958 C80.253,189.842 72.911,186.789 65.569,183.736 C61.520,182.052 57.306,179.715 53.067,178.558 C44.419,176.198 36.302,185.571 41.429,193.053 ZM30.013,255.724 C30.865,255.048 31.743,254.384 32.676,253.733 C38.845,249.429 45.123,246.019 50.811,241.511 C50.583,241.267 50.424,240.943 50.397,240.528 C49.997,234.323 36.589,238.039 33.790,239.715 C27.434,243.520 27.794,249.551 30.013,255.724 ZM39.326,240.693 C39.824,240.514 40.136,240.910 40.141,241.324 C40.967,241.444 41.631,242.232 41.798,243.031 C42.203,244.958 40.852,247.999 38.658,248.122 C36.822,248.225 36.353,246.166 36.527,244.718 C36.731,243.017 37.658,241.295 39.326,240.693 ZM38.520,246.092 C38.584,246.061 38.702,246.009 38.731,245.979 C39.150,245.554 39.567,245.189 39.878,244.665 C40.221,244.090 40.680,243.138 40.188,242.511 C39.931,242.182 39.643,242.110 39.358,242.185 C38.685,242.619 38.363,243.451 38.259,244.237 C38.194,244.728 38.158,245.713 38.520,246.092 ZM79.862,215.850 C76.240,218.530 73.356,221.508 70.705,225.163 C69.978,226.165 68.731,226.172 68.005,225.163 C66.368,222.885 64.920,220.201 64.958,217.402 C64.572,214.676 65.301,211.843 67.460,209.500 C71.961,204.614 80.747,205.110 85.609,209.056 C86.168,209.510 86.191,210.471 85.864,211.048 C84.595,213.297 81.873,214.362 79.862,215.850 ZM69.313,211.366 C68.353,212.318 67.671,213.509 67.245,214.800 C67.508,215.067 67.679,215.444 67.612,215.917 C67.289,218.219 68.008,220.084 69.247,221.786 C70.948,219.447 72.901,217.297 75.125,215.452 C76.435,214.365 77.796,213.334 79.174,212.339 C79.962,211.770 81.106,211.210 81.995,210.517 C78.223,208.426 72.373,208.332 69.313,211.366 ZM72.870,216.135 C71.820,216.413 70.902,215.752 70.923,214.645 C70.930,214.265 71.000,213.860 71.118,213.471 C70.730,213.140 70.686,212.627 70.894,212.177 C71.459,210.953 72.853,210.068 74.070,211.023 C75.921,212.475 75.017,215.567 72.870,216.135 ZM72.066,214.500 C72.063,214.495 72.061,214.496 72.059,214.492 C72.058,214.492 72.051,214.493 72.047,214.494 C72.061,214.508 72.072,214.516 72.066,214.500 ZM72.739,213.200 C72.665,213.278 72.582,213.349 72.512,213.435 C72.317,213.677 72.011,213.746 71.714,213.714 C71.767,213.954 71.842,214.188 71.972,214.407 C71.977,214.416 71.999,214.443 72.021,214.467 C72.025,214.466 72.029,214.466 72.033,214.465 C72.029,214.465 72.026,214.467 72.023,214.470 C72.031,214.479 72.038,214.485 72.045,214.492 C72.050,214.492 72.052,214.493 72.059,214.491 C72.051,214.478 72.044,214.466 72.037,214.464 C72.096,214.451 72.170,214.438 72.128,214.453 C72.392,214.357 72.538,214.192 72.653,213.971 C72.667,213.929 72.701,213.844 72.706,213.825 C72.710,213.809 72.721,213.742 72.730,213.692 C72.732,213.643 72.736,213.573 72.736,213.558 C72.736,213.463 72.740,213.369 72.742,213.274 C72.742,213.263 72.741,213.233 72.739,213.200 ZM73.087,212.868 C73.082,212.871 73.076,212.875 73.068,212.879 C73.063,212.882 73.056,212.888 73.050,212.892 C73.100,212.894 73.124,212.854 73.087,212.868 ZM42.168,219.778 C40.876,221.051 38.676,221.058 37.896,219.222 C37.598,218.519 37.556,217.702 37.656,216.953 C37.476,216.871 37.326,216.724 37.272,216.486 C36.913,214.934 37.535,213.226 39.389,213.450 C42.176,213.786 44.449,217.529 42.168,219.778 ZM40.915,217.445 C40.816,216.781 40.135,215.994 39.425,215.607 C39.230,215.501 39.239,215.495 38.983,215.445 C38.950,215.439 38.876,215.431 38.852,215.426 C38.843,215.446 38.832,215.472 38.820,215.520 C38.758,215.754 38.754,216.023 38.761,216.283 C38.767,216.500 38.688,216.673 38.563,216.798 C38.788,217.526 39.218,218.224 39.655,218.521 C39.950,218.722 40.149,218.587 40.489,218.302 C40.665,218.155 40.823,217.950 40.884,217.791 C40.928,217.678 40.929,217.535 40.915,217.445 ZM44.271,206.058 C45.408,205.519 46.817,205.774 47.544,206.851 C48.381,208.092 47.997,210.067 47.006,211.112 C45.517,212.681 43.294,211.324 42.904,209.658 C42.290,208.367 43.014,206.654 44.271,206.058 ZM44.882,210.105 C45.222,210.211 45.449,210.157 45.695,209.878 C46.033,209.495 46.205,208.863 46.162,208.354 C46.131,207.980 46.030,207.854 45.803,207.716 C45.600,207.592 45.303,207.541 45.104,207.578 C44.822,207.631 44.548,207.742 44.390,208.040 C44.174,208.447 44.351,208.987 44.337,209.418 C44.333,209.536 44.296,209.638 44.248,209.732 C44.424,209.897 44.636,210.027 44.882,210.105 ZM40.947,0.649 C38.189,0.800 35.109,0.756 32.666,2.197 C30.995,3.184 29.736,1.303 30.212,-0.000 L41.699,-0.000 C41.649,0.329 41.410,0.623 40.947,0.649 ZM35.392,126.744 C36.970,127.857 37.347,130.038 36.234,131.616 C35.121,133.194 32.939,133.571 31.361,132.458 C29.783,131.345 29.406,129.164 30.519,127.586 C31.632,126.008 33.814,125.631 35.392,126.744 ZM31.472,28.656 C30.080,27.690 28.116,27.254 26.526,26.647 C24.806,25.991 23.041,25.465 21.281,24.931 C18.716,24.151 20.258,20.396 22.713,21.541 C24.473,22.362 26.263,23.158 27.944,24.135 C29.640,25.122 30.735,26.482 32.207,27.706 C32.737,28.147 32.032,29.045 31.472,28.656 ZM14.895,6.311 C14.257,7.840 13.214,9.266 11.615,10.535 C7.901,13.482 3.972,16.208 0.000,18.871 L0.000,12.728 C2.533,10.980 5.051,9.211 7.509,7.372 C8.181,6.869 8.726,6.350 9.184,5.814 C6.208,4.551 3.112,3.591 0.000,2.683 L0.000,-0.000 L7.004,-0.000 C8.250,0.393 9.490,0.794 10.716,1.214 C10.693,0.824 10.638,0.417 10.562,-0.000 L15.602,-0.000 C15.769,1.532 15.765,3.036 15.463,4.472 C15.504,5.128 15.294,5.789 14.895,6.311 ZM0.000,545.951 C1.239,546.294 2.477,546.638 3.706,547.000 L0.000,547.000 L0.000,545.951 ZM8.607,492.155 C7.088,496.926 3.707,500.690 0.771,504.633 C0.539,504.945 0.274,505.143 0.000,505.268 L0.000,500.686 C2.986,497.992 6.141,495.478 8.285,492.020 C8.388,491.854 8.669,491.961 8.607,492.155 ZM1.931,36.782 C2.565,38.328 3.799,39.767 4.577,41.267 C5.371,42.798 6.088,44.366 6.781,45.944 C7.276,47.070 5.770,48.023 5.092,46.929 C4.244,45.561 3.376,44.205 2.449,42.888 C1.745,41.887 0.957,40.559 0.000,39.617 L0.000,35.444 C0.715,35.336 1.474,35.667 1.931,36.782 ZM0.979,520.822 C0.648,520.944 0.324,521.085 0.000,521.226 L0.000,514.319 C8.309,518.020 9.762,527.456 12.137,535.447 C13.203,539.031 14.840,543.083 15.455,547.000 L10.338,547.000 C9.292,543.193 8.095,539.419 6.969,535.634 C5.609,531.064 4.744,524.509 1.235,521.061 C1.144,520.972 1.065,520.904 0.979,520.822 ZM18.440,518.520 C19.004,518.488 20.108,517.834 20.748,517.558 C21.648,517.169 22.554,516.801 23.461,516.430 C24.434,516.032 26.964,515.455 27.458,514.482 C27.548,514.304 27.843,514.430 27.780,514.618 C27.336,515.923 26.653,516.823 25.554,517.686 C24.620,518.420 23.630,519.091 22.620,519.715 C21.911,520.153 20.480,520.706 20.062,521.340 C17.902,524.615 14.508,518.744 18.440,518.520 ZM40.429,547.000 L31.408,547.000 C31.526,546.970 31.642,546.938 31.778,546.923 C34.715,546.600 37.513,546.700 40.429,547.000 ZM37.000,353.500 C37.000,352.119 38.119,351.000 39.500,351.000 C40.881,351.000 42.000,352.119 42.000,353.500 C42.000,354.881 40.881,356.000 39.500,356.000 C38.119,356.000 37.000,354.881 37.000,353.500 ZM56.392,462.744 C57.970,463.857 58.347,466.038 57.234,467.616 C56.121,469.194 53.939,469.571 52.361,468.458 C50.783,467.345 50.406,465.164 51.519,463.586 C52.632,462.008 54.814,461.631 56.392,462.744 ZM82.572,399.558 L91.239,398.508 C93.090,396.338 96.449,395.214 98.038,394.682 C101.868,393.401 106.975,392.332 112.421,391.672 C116.045,391.233 119.638,391.001 122.812,391.001 C127.107,391.001 131.882,391.321 134.592,393.255 L143.270,392.203 C143.693,392.152 144.121,392.126 144.544,392.126 C146.935,392.126 149.281,392.962 151.153,394.483 C153.390,396.305 154.769,398.898 155.036,401.780 C155.987,411.962 155.132,425.969 145.660,434.880 C141.775,438.535 136.882,440.851 131.132,441.794 C130.391,442.672 129.481,443.304 128.468,443.751 L130.645,461.028 C138.419,461.406 141.823,464.102 143.312,466.436 C143.801,467.150 144.123,467.913 144.271,468.707 C144.287,468.777 144.295,468.820 144.295,468.820 L145.116,473.184 L143.114,473.375 C143.059,473.449 143.002,473.522 142.942,473.596 C138.630,478.935 129.304,481.997 117.358,481.997 C116.527,481.997 115.679,481.981 114.838,481.951 C112.208,481.856 105.761,481.254 102.687,477.728 C102.663,477.700 102.638,477.671 102.614,477.643 L100.830,477.816 L101.015,473.223 C101.048,472.404 101.380,470.249 103.745,467.943 C105.671,466.064 108.518,464.534 112.232,463.377 L110.044,446.006 C108.820,445.700 107.630,445.300 106.480,444.808 C105.469,444.900 104.469,444.947 103.496,444.947 C98.676,444.947 94.235,443.817 90.297,441.589 C78.997,435.195 74.869,421.791 73.395,411.674 C72.977,408.807 73.706,405.960 75.452,403.655 C77.194,401.359 79.722,399.904 82.572,399.558 ZM77.332,411.090 C78.677,420.321 82.356,432.497 92.246,438.094 C95.597,439.990 99.356,440.938 103.496,440.938 C104.646,440.938 105.825,440.865 107.034,440.719 C107.066,440.715 107.099,440.707 107.130,440.703 C109.126,441.681 111.319,442.325 113.625,442.593 L116.620,466.361 C105.173,468.892 104.991,473.386 104.991,473.386 L105.058,473.379 C104.825,475.883 109.294,477.739 114.980,477.945 C115.778,477.974 116.571,477.988 117.358,477.988 C127.261,477.988 136.112,475.700 139.855,471.066 C140.257,470.568 140.408,470.080 140.371,469.609 L140.393,469.607 C140.393,469.607 140.384,469.563 140.369,469.500 C140.326,469.211 140.195,468.932 140.000,468.661 C139.168,467.306 136.564,464.992 128.746,464.991 C128.233,464.991 127.697,465.001 127.137,465.022 L124.579,444.724 C124.579,444.724 124.578,444.724 124.577,444.724 C122.190,445.007 119.074,445.489 117.030,443.926 C117.005,443.907 117.004,443.864 117.040,443.854 C119.505,443.201 121.835,442.217 124.126,441.130 L124.122,441.094 C125.955,440.312 127.628,439.275 129.105,438.040 C129.134,438.037 129.166,438.036 129.196,438.033 C134.753,437.359 139.355,435.327 142.944,431.950 C151.234,424.151 151.941,411.442 151.074,402.156 C150.907,400.355 150.046,398.737 148.651,397.601 C147.471,396.642 146.036,396.135 144.544,396.135 C144.279,396.135 144.012,396.151 143.744,396.183 L132.824,397.507 L132.823,397.508 L132.796,397.283 L132.796,397.284 C132.622,395.824 128.623,395.010 122.812,395.010 C119.882,395.010 116.491,395.217 112.896,395.652 C102.162,396.953 93.675,399.796 93.937,401.993 L93.964,402.216 L83.047,403.538 C81.275,403.753 79.699,404.659 78.614,406.089 C77.527,407.525 77.071,409.302 77.332,411.090 ZM96.847,426.279 L96.935,427.015 C97.296,429.531 98.186,431.853 99.477,433.900 C98.037,433.569 96.687,433.066 95.442,432.362 C87.463,427.846 84.716,416.499 83.827,410.066 L94.745,408.743 L96.847,426.279 ZM91.271,413.201 L88.495,413.538 C89.221,416.791 90.469,420.799 92.574,424.073 L91.271,413.201 ZM96.227,403.467 C96.192,403.434 96.217,403.362 96.268,403.367 C102.180,403.912 107.940,403.774 113.857,403.193 C117.506,402.835 121.209,402.431 124.774,401.528 C127.001,400.963 128.937,399.932 131.244,399.822 C131.441,399.812 131.559,400.090 131.409,400.223 C126.777,404.324 119.797,405.305 113.857,405.905 C108.767,406.419 100.371,407.355 96.227,403.467 ZM123.347,471.872 C124.537,471.628 126.931,470.812 127.355,469.498 C127.374,469.439 127.477,469.446 127.469,469.514 C127.212,471.617 126.178,472.601 124.071,473.106 C122.085,473.582 120.219,473.208 118.868,471.608 C118.854,471.592 118.872,471.563 118.891,471.577 C120.020,472.400 122.036,472.141 123.347,471.872 ZM133.603,404.034 L144.577,402.770 C145.175,409.173 145.178,420.852 138.490,427.145 C137.441,428.131 136.242,428.947 134.914,429.614 C135.735,427.183 136.054,424.565 135.734,421.880 L133.603,404.034 ZM139.319,418.331 C140.244,415.688 140.925,412.082 140.845,407.235 L138.032,407.559 L139.319,418.331 ZM118.903,534.898 C115.807,538.205 113.445,542.608 112.335,546.979 C112.333,546.986 112.332,546.993 112.330,547.000 L107.114,547.000 C108.307,541.112 111.617,535.374 115.382,531.353 C117.585,528.999 121.100,532.551 118.903,534.898 ZM152.197,303.301 C152.153,306.012 154.450,308.911 155.584,311.290 C156.669,313.566 157.763,315.833 158.741,318.156 C158.798,318.291 158.598,318.340 158.527,318.246 C155.004,313.628 151.411,309.102 147.973,304.444 C145.814,301.519 152.263,299.282 152.197,303.301 ZM166.158,289.226 C166.885,290.974 168.807,292.442 170.016,293.882 C171.468,295.612 172.805,297.490 174.318,299.156 C174.389,299.235 174.294,299.376 174.199,299.310 C170.317,296.560 165.758,294.821 162.336,291.447 C159.835,288.980 164.644,285.585 166.158,289.226 ZM176.638,272.623 C178.341,275.918 181.133,278.479 183.767,281.039 C183.893,281.161 183.727,281.383 183.578,281.284 C180.253,279.069 176.430,277.704 173.261,275.224 C170.837,273.327 175.142,269.729 176.638,272.623 ZM205.845,210.242 C207.186,210.334 208.945,209.388 210.150,208.886 C211.348,208.387 212.534,207.965 213.802,207.669 C213.936,207.638 213.999,207.808 213.892,207.883 C212.633,208.767 211.429,209.770 210.278,210.791 C209.751,211.258 209.234,211.738 208.712,212.210 C208.388,212.503 207.803,212.862 207.549,213.207 C206.699,214.365 204.947,214.585 204.141,213.207 C203.425,211.985 204.321,210.137 205.845,210.242 ZM203.182,232.059 C204.892,232.026 206.329,232.412 207.901,233.043 C209.401,233.644 211.042,234.803 212.604,235.025 C212.667,235.034 212.640,235.131 212.577,235.121 C211.274,234.933 209.287,235.292 207.918,235.399 C206.517,235.509 205.095,235.692 203.702,235.892 C200.827,236.304 200.408,232.112 203.182,232.059 ZM193.319,259.575 C191.887,258.829 189.843,258.155 188.787,256.888 C186.743,254.437 190.890,251.961 191.979,254.429 C192.687,256.031 193.244,257.101 194.667,258.214 C195.993,259.250 197.259,260.390 198.646,261.344 C198.815,261.460 198.671,261.694 198.488,261.613 C196.778,260.859 194.987,260.445 193.319,259.575 ZM202.000,388.500 C202.000,389.881 200.881,391.000 199.500,391.000 C198.119,391.000 197.000,389.881 197.000,388.500 C197.000,387.119 198.119,386.000 199.500,386.000 C200.881,386.000 202.000,387.119 202.000,388.500 ZM185.830,512.983 C182.809,510.946 180.592,507.770 181.303,504.051 C181.879,501.040 184.427,499.068 187.318,497.803 C183.874,493.819 184.551,487.378 190.907,485.014 C197.776,482.460 206.114,482.742 213.544,483.367 C213.239,475.763 212.736,467.691 214.138,460.315 C215.183,454.813 221.861,450.999 226.183,456.090 C232.395,463.406 226.307,492.536 239.241,491.900 C240.117,485.783 252.333,484.335 256.741,486.252 C266.000,490.278 264.659,503.305 264.640,511.563 C264.627,517.093 264.496,522.626 264.257,528.152 C264.089,532.036 263.833,536.256 260.814,539.108 C254.576,545.000 243.112,542.090 240.154,534.578 C239.783,534.635 239.384,534.703 238.909,534.807 C227.582,537.289 217.237,541.693 205.471,541.891 C198.596,542.006 186.066,541.895 182.523,534.430 C181.031,531.285 182.127,528.738 184.221,526.836 C181.781,525.568 179.999,523.444 180.138,520.375 C180.285,517.142 182.878,514.738 185.830,512.983 ZM254.763,536.712 C258.377,535.776 258.956,532.981 259.190,529.704 C259.589,524.126 259.601,518.478 259.637,512.889 C259.672,507.411 260.532,499.996 258.385,494.821 C256.971,491.414 254.225,490.028 250.646,490.293 C249.594,490.372 244.177,491.301 244.345,493.114 C249.995,502.295 251.613,514.468 248.216,524.669 C247.401,527.115 246.312,530.304 244.586,532.410 C245.496,536.587 250.997,537.687 254.763,536.712 ZM191.547,523.204 C194.678,522.540 196.013,527.257 192.875,528.024 C189.096,528.947 184.136,531.731 189.746,534.570 C195.334,537.399 202.910,537.150 208.953,536.752 C219.896,536.030 229.789,531.149 240.507,529.419 C245.728,521.727 246.151,511.274 243.154,502.385 C242.807,502.002 242.565,501.499 242.515,500.866 C242.459,500.160 241.399,499.042 241.009,498.435 C240.915,498.288 240.831,498.143 240.743,497.998 C240.406,497.895 240.078,497.771 239.737,497.679 C239.046,497.492 238.033,497.443 237.249,497.223 C236.817,497.101 236.479,496.897 236.212,496.647 C233.383,496.129 230.769,494.739 229.062,492.294 C225.312,486.920 225.746,478.498 225.106,472.260 C224.735,468.652 224.500,464.775 223.289,461.323 C222.809,459.953 222.609,458.975 221.060,458.935 C218.750,458.875 218.967,461.519 218.804,463.301 C218.116,470.835 218.411,478.544 218.640,486.098 C218.678,487.352 217.460,488.720 216.142,488.597 C210.931,488.109 205.617,487.963 200.396,488.334 C197.840,488.516 192.675,488.560 190.746,490.680 C188.263,493.410 191.931,495.697 194.395,496.123 C196.783,496.536 196.777,500.526 194.395,500.942 C192.188,501.328 188.665,501.980 187.145,503.746 C184.241,507.120 189.694,509.903 192.617,510.408 C195.314,510.873 194.644,514.438 192.617,515.227 C190.533,516.038 187.964,517.192 186.417,518.827 C183.289,522.134 188.648,523.820 191.547,523.204 ZM360.392,204.744 C361.970,205.857 362.347,208.038 361.234,209.616 C360.121,211.194 357.939,211.571 356.361,210.458 C354.783,209.345 354.406,207.164 355.519,205.586 C356.632,204.008 358.814,203.631 360.392,204.744 ZM369.200,339.206 C371.179,340.602 371.652,343.337 370.256,345.316 C368.860,347.295 366.125,347.767 364.146,346.372 C362.167,344.976 361.695,342.241 363.090,340.262 C364.486,338.283 367.222,337.810 369.200,339.206 ZM356.480,101.434 C356.814,97.985 358.780,94.223 362.537,93.779 C367.059,93.244 371.433,97.538 372.382,101.738 C373.571,106.999 368.919,110.686 364.010,110.836 C358.684,110.999 356.278,106.163 356.480,101.434 ZM364.010,105.832 C366.208,105.757 368.243,104.494 367.318,102.191 C366.793,100.883 364.530,98.043 362.808,98.797 C362.397,98.977 362.064,99.656 361.900,100.024 C361.732,100.403 361.647,100.816 361.534,101.213 C361.512,101.291 361.484,101.471 361.463,101.621 C361.399,103.541 361.629,105.913 364.010,105.832 ZM408.896,413.512 C430.000,419.842 428.076,449.041 416.274,463.902 C418.714,465.082 420.511,467.282 420.742,470.380 C420.964,473.354 419.661,475.726 417.633,477.363 C419.167,478.913 419.998,481.106 419.651,483.736 C418.971,488.895 414.929,490.226 410.666,490.835 C411.088,496.249 408.849,502.528 402.817,503.232 C396.335,503.989 392.666,498.134 392.365,492.312 C389.166,492.583 385.872,492.758 383.149,490.734 C378.480,487.264 379.192,483.386 381.772,480.121 C378.713,478.882 376.616,476.312 377.356,472.073 C377.657,470.353 378.462,469.103 379.554,468.173 C370.218,464.291 363.652,456.251 362.272,445.381 C358.997,419.600 387.180,406.998 408.896,413.512 ZM397.337,491.991 C397.421,494.739 398.892,499.123 402.695,498.193 C405.415,497.528 405.847,494.012 405.714,491.369 C402.921,491.621 400.127,491.785 397.333,491.957 C397.333,491.969 397.337,491.979 397.337,491.991 ZM383.671,475.770 C384.417,476.217 386.255,476.018 387.097,476.001 C389.762,475.945 390.245,479.318 388.357,480.680 C387.428,481.318 386.538,482.008 385.688,482.751 C385.939,486.296 387.318,487.881 389.826,487.506 C391.141,487.696 392.713,487.224 394.021,487.134 C397.282,486.909 400.544,486.853 403.803,486.557 C406.289,486.331 412.581,486.644 414.121,484.495 C415.892,482.026 413.883,479.929 411.307,479.885 C409.514,479.932 407.632,479.727 405.950,479.738 C402.421,479.761 398.859,478.366 395.395,478.683 C395.232,478.698 395.223,478.461 395.359,478.413 C400.000,476.785 404.961,476.139 409.801,475.214 C410.007,475.104 410.240,475.017 410.515,474.968 C410.664,474.926 410.824,474.899 410.994,474.885 C413.068,474.528 415.704,473.690 415.778,471.151 C415.851,468.655 413.583,467.880 411.491,467.930 C411.240,467.936 411.001,467.898 410.778,467.829 C403.541,468.573 396.305,469.317 389.069,470.062 C388.759,470.257 388.414,470.397 388.033,470.440 C386.700,470.591 385.204,470.523 384.030,471.196 C382.275,472.202 381.625,474.543 383.671,475.770 ZM397.901,444.392 C398.251,442.968 398.943,440.398 399.052,438.134 C399.052,438.025 399.036,437.927 399.051,437.809 C399.064,437.706 399.067,437.609 399.072,437.511 C399.071,437.233 399.061,436.963 399.036,436.703 C398.442,432.995 392.141,432.689 391.493,436.232 C390.828,437.565 391.357,439.001 391.782,440.522 C392.061,441.518 392.344,442.395 392.883,443.278 C393.150,443.717 393.349,444.176 393.594,444.605 C393.584,444.686 393.579,444.770 393.570,444.852 C392.754,443.785 391.704,442.714 390.728,441.808 C389.817,440.962 388.348,440.085 387.160,439.670 C385.166,438.973 382.551,440.317 382.988,442.471 C382.882,443.689 383.170,445.024 383.739,445.842 C385.139,447.851 388.367,448.800 390.715,449.029 C391.747,449.130 392.914,449.720 393.122,450.872 C393.936,455.372 394.749,459.872 395.562,464.372 C397.167,464.207 398.772,464.042 400.377,463.877 C399.850,459.477 399.323,455.077 398.796,450.677 C398.703,449.908 399.320,448.815 400.032,448.509 C401.811,447.746 403.571,446.777 405.112,445.601 C406.350,444.656 408.446,443.219 408.254,441.418 C408.209,440.996 408.063,440.593 407.911,440.198 C407.745,439.768 407.568,439.338 407.309,438.957 C406.924,438.391 406.336,437.971 405.641,437.925 C404.817,437.871 404.050,438.327 403.388,438.822 C402.342,439.603 401.401,440.526 400.597,441.557 C399.785,442.598 398.773,443.474 397.899,444.479 C397.902,444.449 397.899,444.421 397.901,444.392 ZM387.232,465.228 C388.354,465.113 389.476,464.998 390.598,464.882 C389.926,461.165 389.254,457.447 388.582,453.729 C383.336,452.666 378.038,449.498 377.943,443.557 C377.850,437.720 381.870,434.021 386.514,434.850 C388.093,427.392 400.484,426.991 403.469,433.512 C407.910,432.274 413.116,435.677 413.267,441.215 C413.405,446.311 408.307,450.065 403.970,452.190 C404.417,455.916 404.863,459.643 405.310,463.369 C407.051,463.190 408.793,463.011 410.535,462.832 C418.085,455.198 421.074,442.894 419.476,432.428 C417.190,417.456 401.448,415.832 388.980,417.765 C377.241,419.584 367.278,428.088 366.991,440.596 C366.691,453.653 374.994,462.786 387.232,465.228 ZM485.448,350.323 C490.115,349.408 494.857,347.784 499.547,347.193 C509.014,345.999 510.279,354.674 510.567,362.046 C510.864,369.628 511.147,377.211 511.429,384.794 C511.477,386.095 510.801,391.581 511.704,392.539 C511.637,392.469 515.933,390.137 517.010,389.601 C521.348,387.717 526.394,386.441 529.262,391.221 C531.983,395.759 529.659,401.475 528.193,405.985 C525.050,415.653 522.280,425.433 519.142,435.094 C518.031,438.514 515.455,448.994 509.771,445.554 C506.964,443.856 506.535,440.073 506.443,437.108 C506.266,431.339 506.687,425.429 506.861,419.658 C506.954,416.579 506.850,415.286 504.181,417.854 C502.758,419.224 501.271,420.470 499.352,421.057 C495.749,422.159 492.432,420.708 490.218,417.849 C487.201,413.951 486.010,408.382 484.790,403.739 C483.109,397.344 481.540,390.948 479.646,384.609 C477.729,378.195 475.253,371.717 473.864,365.165 C473.077,361.451 472.992,357.389 475.818,354.496 C478.310,351.944 482.068,350.986 485.448,350.323 ZM511.349,441.066 C511.349,441.064 511.351,441.061 511.351,441.059 C510.796,440.579 511.394,442.447 511.349,441.066 ZM478.707,363.833 C479.687,368.896 481.690,373.962 483.174,378.900 C486.156,388.821 488.280,399.041 491.495,408.877 C492.105,410.742 492.872,413.932 494.493,415.220 C497.271,417.430 499.665,415.109 501.760,413.111 C503.629,411.329 505.985,409.382 508.766,410.398 C511.340,411.338 511.962,414.101 512.027,416.543 C512.137,420.642 511.815,424.834 511.688,428.935 C511.614,431.329 511.462,433.732 511.462,436.128 C511.462,436.788 511.442,437.485 511.509,438.146 C511.506,438.116 511.693,439.314 511.753,440.243 C511.858,440.088 511.959,439.939 512.017,439.828 C512.686,438.533 513.155,437.115 513.636,435.741 C515.210,431.244 516.346,426.623 517.711,422.064 C519.460,416.225 521.466,410.449 523.351,404.652 C524.754,400.337 528.069,390.228 519.544,393.929 C514.956,396.213 507.453,400.928 506.681,392.539 C505.631,381.124 506.460,369.532 505.361,358.116 C505.148,355.908 504.949,353.826 502.957,352.630 C500.463,351.131 496.801,352.976 494.164,353.682 C491.375,354.429 488.523,354.755 485.708,355.374 C480.736,356.466 477.602,358.120 478.707,363.833 ZM481.500,498.000 C482.881,498.000 484.000,499.119 484.000,500.500 C484.000,501.881 482.881,503.000 481.500,503.000 C480.119,503.000 479.000,501.881 479.000,500.500 C479.000,499.119 480.119,498.000 481.500,498.000 ZM750.892,484.819 C759.558,488.593 767.030,495.783 770.703,504.531 C773.495,511.180 774.023,519.347 774.437,526.671 C774.449,526.682 774.464,526.689 774.476,526.700 C779.734,528.855 781.019,534.810 781.309,540.294 C785.105,540.821 788.195,543.481 789.815,547.000 L783.919,547.000 C783.372,546.172 782.680,545.529 781.716,545.239 C781.236,545.504 780.630,545.614 779.900,545.446 C779.260,545.300 777.384,546.296 776.301,547.000 L772.642,547.000 C773.161,546.010 773.744,545.047 774.502,544.129 C775.044,543.473 775.676,542.774 776.383,542.166 C776.343,538.471 776.230,533.316 772.817,531.484 C772.593,531.460 772.354,531.404 772.100,531.308 C768.792,530.050 767.309,534.115 766.525,536.640 C766.532,536.658 766.543,536.671 766.550,536.689 C766.570,536.746 766.526,536.792 766.475,536.805 C766.452,536.879 766.427,536.958 766.406,537.029 C766.378,537.119 766.243,537.124 766.218,537.029 C766.172,536.860 766.140,536.687 766.105,536.515 C765.019,535.553 763.827,535.962 762.720,536.749 C762.549,537.559 761.696,537.908 760.961,538.243 C760.625,538.553 760.313,538.838 760.035,539.051 C759.930,539.132 759.813,539.188 759.691,539.226 C758.761,540.711 759.789,543.188 760.790,544.565 C761.232,544.650 761.675,544.735 762.137,544.746 C762.155,544.747 762.164,544.773 762.146,544.783 C760.883,545.469 759.697,546.133 758.710,547.000 L753.590,547.000 C754.325,546.323 755.198,545.783 756.130,545.345 C756.998,544.937 757.927,544.524 758.888,544.406 C759.386,544.345 759.862,544.406 760.337,544.488 C758.902,543.298 757.678,541.757 757.286,539.918 C756.872,537.980 757.799,535.745 759.704,535.139 C760.587,534.723 761.635,534.553 762.610,534.584 C763.841,534.622 765.169,534.889 765.984,535.773 C765.776,534.060 766.023,532.266 766.691,530.691 C767.312,529.225 768.282,528.207 769.486,527.461 C769.010,519.023 768.486,509.584 763.954,502.344 C757.317,491.741 745.164,485.783 732.725,486.737 C718.251,487.848 702.744,497.719 699.129,511.769 C703.888,504.166 711.126,498.315 720.202,496.031 C730.782,493.369 743.730,494.815 751.052,503.663 C758.264,512.377 758.182,524.990 755.790,535.467 C754.797,539.815 752.885,543.653 750.339,547.000 L727.975,547.000 C727.654,546.665 727.336,546.322 727.037,545.946 C723.218,541.149 722.663,534.551 724.894,528.943 C727.241,523.046 732.556,518.823 738.964,518.402 C744.858,518.015 748.997,520.540 752.234,524.394 C752.251,523.094 752.224,521.782 752.128,520.457 C751.158,506.994 741.545,499.335 728.256,499.890 C713.510,500.506 702.508,510.883 698.937,524.820 C698.616,526.076 697.639,526.599 696.641,526.584 C695.547,526.725 694.423,526.218 694.120,524.820 C694.109,524.771 694.104,524.719 694.093,524.670 C694.079,524.606 694.068,524.541 694.059,524.474 C692.999,519.230 693.551,513.423 695.116,508.369 C701.874,486.552 730.634,475.997 750.892,484.819 ZM738.565,523.481 C734.170,523.984 730.736,527.225 729.311,531.328 C727.920,535.332 728.392,540.106 731.334,543.328 C734.892,547.226 740.039,547.233 744.717,545.900 C748.158,541.950 750.340,537.224 751.423,532.071 C748.540,526.961 745.183,522.722 738.565,523.481 ZM762.500,434.000 C763.881,434.000 765.000,435.119 765.000,436.500 C765.000,437.881 763.881,439.000 762.500,439.000 C761.119,439.000 760.000,437.881 760.000,436.500 C760.000,435.119 761.119,434.000 762.500,434.000 ZM795.146,110.372 C793.167,108.976 792.695,106.241 794.090,104.262 C795.486,102.283 798.222,101.810 800.200,103.206 C802.179,104.602 802.652,107.337 801.256,109.316 C799.860,111.295 797.125,111.767 795.146,110.372 ZM787.719,378.631 C787.707,378.646 787.698,378.662 787.686,378.677 C786.171,380.442 784.656,382.206 783.141,383.971 C782.258,385.000 780.500,384.869 779.600,383.971 C778.592,382.964 778.720,381.460 779.600,380.436 C779.661,380.365 779.722,380.293 779.783,380.222 C779.094,380.314 778.405,380.405 777.715,380.496 C774.525,380.920 774.567,375.915 777.715,375.498 C779.777,375.224 781.838,374.951 783.900,374.677 C784.300,373.109 784.700,371.540 785.101,369.971 C784.567,369.444 784.032,368.917 783.498,368.390 C781.269,368.921 779.000,369.254 776.809,369.445 C777.128,370.234 777.250,371.061 776.974,371.941 C776.274,374.177 775.283,376.356 774.445,378.544 C774.410,378.636 774.362,378.724 774.317,378.813 C774.114,379.404 773.674,379.909 772.958,380.188 C772.814,380.255 772.664,380.306 772.509,380.342 C769.306,381.235 766.103,382.129 762.899,383.023 C759.785,383.891 758.468,379.067 761.568,378.202 C762.242,378.014 762.917,377.826 763.591,377.638 C763.189,377.501 762.788,377.364 762.386,377.227 C759.348,376.191 760.661,371.364 763.717,372.406 C765.999,373.185 768.281,373.963 770.563,374.742 C771.029,373.523 771.496,372.305 771.963,371.087 C771.653,370.605 771.344,370.123 771.034,369.642 C759.735,369.409 749.376,365.350 743.553,354.987 C738.919,346.740 737.530,337.038 740.056,327.937 C741.309,323.424 743.397,319.342 745.053,315.005 C745.840,312.945 747.304,314.693 745.830,310.123 C745.503,309.456 745.127,308.818 744.710,308.204 C741.857,308.545 739.000,308.694 736.185,309.383 C735.477,309.556 734.868,309.435 734.375,309.149 C733.594,308.806 732.999,308.087 733.015,306.973 C733.052,304.324 733.849,302.360 735.278,300.362 C735.236,297.193 737.723,293.861 740.829,292.919 C741.825,284.924 751.371,281.000 758.797,281.782 C767.921,282.743 772.599,291.420 774.078,299.596 C774.594,302.446 774.238,303.265 776.135,305.407 C781.614,311.598 790.796,313.692 796.385,319.997 C799.815,323.865 801.655,328.597 805.576,332.176 C810.862,337.000 817.493,340.130 823.460,344.017 C825.044,345.049 826.509,345.949 827.326,347.752 C828.996,351.437 826.296,353.017 823.326,353.931 C823.385,357.308 818.791,359.096 815.081,359.500 C811.541,362.770 799.063,363.776 794.295,363.385 C792.704,364.708 790.873,365.768 788.910,366.616 C789.861,367.642 790.519,368.792 790.172,370.356 C789.634,372.777 788.943,375.172 788.330,377.574 C788.218,378.012 788.002,378.360 787.719,378.631 ZM765.495,334.235 C765.529,334.132 765.686,334.149 765.687,334.261 C765.838,347.648 781.499,354.645 793.232,358.279 C793.544,358.241 793.861,358.241 794.168,358.337 C796.148,358.950 798.409,358.783 800.442,358.640 C802.639,358.485 804.953,358.154 807.151,357.608 C798.986,354.998 791.094,349.029 786.040,343.224 C786.026,343.208 786.044,343.179 786.063,343.193 C790.770,346.709 795.393,349.612 800.979,351.583 C805.081,353.031 809.278,353.633 813.430,354.583 C814.605,354.549 818.411,354.218 817.891,353.458 C817.859,353.412 817.846,353.359 817.819,353.311 C810.397,351.636 803.113,345.698 798.546,340.558 C798.517,340.526 798.554,340.472 798.593,340.497 C804.703,344.262 811.617,348.593 818.898,349.974 C819.053,349.894 819.215,349.826 819.388,349.786 C820.236,349.590 821.076,349.310 821.928,349.140 C822.113,349.104 823.659,350.564 822.334,349.234 C823.199,350.102 821.292,348.569 820.932,348.334 C814.982,344.458 808.516,341.272 803.092,336.645 C800.229,334.204 798.283,331.417 796.338,328.515 C792.936,325.649 789.511,323.155 785.175,321.295 C781.962,319.916 777.996,318.622 774.452,319.222 C769.699,320.026 768.218,323.404 766.549,327.565 C766.534,327.602 766.467,327.602 766.473,327.555 C767.355,319.891 771.105,315.099 779.339,316.134 C781.394,316.392 783.601,316.968 785.815,317.795 C781.428,315.121 776.600,312.938 773.026,309.368 C768.316,304.663 769.584,297.842 766.259,292.290 C763.772,288.140 759.223,286.152 754.683,286.672 C753.183,286.992 751.728,287.518 750.367,288.324 C748.361,289.511 747.108,291.122 746.019,292.927 C745.817,293.653 745.722,294.413 745.779,295.197 C746.857,296.780 747.027,299.139 746.660,300.909 C746.648,300.965 746.558,300.965 746.546,300.909 C746.251,299.534 745.477,298.209 744.284,297.515 C743.963,297.668 743.619,297.747 743.275,297.701 C741.869,297.513 740.078,300.760 738.993,303.534 C740.962,303.099 743.090,302.770 744.907,302.967 C745.545,302.468 746.097,301.876 746.434,300.946 C746.452,300.897 746.536,300.884 746.547,300.946 C746.690,301.716 746.678,302.551 746.614,303.368 C747.013,303.521 747.387,303.710 747.716,303.958 C751.754,307.011 751.879,312.891 749.805,316.893 C745.695,324.822 742.506,333.658 744.347,342.647 C746.784,354.540 754.564,363.235 767.081,364.417 C773.541,365.027 782.471,364.838 788.688,361.233 C776.044,357.514 761.018,347.633 765.495,334.235 ZM755.090,303.846 C751.959,303.846 749.412,301.304 749.412,298.179 C749.412,295.054 751.959,292.512 755.090,292.512 C758.221,292.512 760.768,295.054 760.768,298.179 C760.768,301.304 758.221,303.846 755.090,303.846 ZM755.090,294.511 C753.061,294.511 751.416,296.153 751.416,298.179 C751.416,300.204 753.061,301.846 755.090,301.846 C757.120,301.846 758.765,300.204 758.765,298.179 C758.765,296.153 757.120,294.511 755.090,294.511 ZM755.088,299.635 C754.979,299.635 754.865,299.665 754.766,299.632 C754.611,299.581 754.471,299.506 754.344,299.416 C754.256,299.371 754.201,299.280 754.124,299.215 C754.082,299.173 754.038,299.134 754.002,299.088 C753.918,298.998 753.810,298.943 753.750,298.827 C753.635,298.603 753.589,298.377 753.593,298.159 C753.463,298.137 753.349,298.092 753.278,298.001 C753.031,297.687 753.300,297.065 753.879,296.611 C754.458,296.157 755.128,296.044 755.375,296.358 C755.453,296.457 755.463,296.593 755.444,296.739 C755.731,296.813 756.001,296.954 756.198,297.177 C756.693,297.734 756.681,298.390 756.375,299.040 C756.097,299.630 755.573,299.765 755.088,299.635 ZM743.448,299.543 C743.566,300.055 742.988,300.470 742.557,300.138 C742.106,299.791 742.401,299.184 742.901,299.127 C743.137,299.101 743.346,298.773 743.510,298.609 C743.625,298.494 743.791,298.640 743.725,298.775 C743.619,298.991 743.393,299.303 743.448,299.543 ZM852.172,324.792 C858.343,325.642 864.580,326.000 870.759,326.858 C875.994,327.585 881.129,328.879 886.356,329.619 C889.341,330.042 888.608,335.235 885.645,334.868 C885.378,334.835 885.112,334.802 884.846,334.769 C884.269,334.698 883.798,334.500 883.422,334.229 C878.535,332.538 873.373,331.641 868.382,330.309 C862.811,328.822 857.516,327.003 852.120,324.980 C852.000,324.935 852.049,324.775 852.172,324.792 ZM868.646,349.300 C873.686,345.639 879.850,342.010 884.311,337.673 C886.754,335.298 890.523,339.338 887.962,341.319 C882.860,345.267 876.443,348.035 870.879,351.341 C867.621,353.277 864.304,355.134 861.079,357.122 C859.263,358.243 857.962,359.523 855.803,359.537 C855.755,359.537 855.721,359.470 855.762,359.437 C860.018,355.930 864.162,352.558 868.646,349.300 ZM886.805,345.345 C888.682,342.240 893.192,345.834 890.676,348.327 C882.172,356.752 877.796,368.638 870.223,377.748 C869.984,378.035 869.577,377.667 869.731,377.369 C875.344,366.547 880.488,355.798 886.805,345.345 ZM896.693,547.000 L885.805,547.000 C888.795,545.688 891.769,544.323 894.875,543.413 C897.120,542.756 898.184,545.960 896.693,547.000 ZM919.811,49.320 C919.379,49.516 918.854,48.975 919.266,48.615 C920.193,47.805 920.852,46.539 921.511,45.513 C922.364,44.182 923.116,42.761 923.849,41.360 C925.040,39.084 928.519,41.539 926.706,43.561 C924.792,45.694 922.468,48.118 919.811,49.320 ZM928.234,245.616 C927.121,247.194 924.939,247.571 923.361,246.458 C921.783,245.345 921.406,243.164 922.519,241.586 C923.632,240.008 925.814,239.631 927.392,240.744 C928.970,241.857 929.347,244.038 928.234,245.616 ZM957.524,62.480 C956.284,60.437 954.929,58.767 953.982,56.520 C952.961,54.099 952.358,51.455 951.222,49.095 C949.751,46.041 954.877,44.981 954.903,48.100 C954.923,50.376 955.606,52.716 956.196,54.913 C956.802,57.168 957.309,59.931 958.335,62.007 C958.600,62.544 957.840,63.000 957.524,62.480 ZM954.693,482.126 C955.000,486.830 956.883,491.214 955.648,495.955 C955.000,498.440 950.951,497.205 951.875,494.917 C953.522,490.843 954.287,486.498 954.497,482.126 C954.503,481.999 954.684,482.001 954.693,482.126 ZM913.832,489.530 C915.354,491.229 917.275,492.582 919.032,494.029 C920.734,495.431 922.300,497.162 924.084,498.439 C928.026,501.262 921.336,504.794 920.693,501.040 C920.332,498.933 918.685,496.948 917.458,495.241 C916.142,493.412 914.942,491.513 913.648,489.672 C913.571,489.562 913.745,489.432 913.832,489.530 ZM896.444,372.947 C892.012,363.505 892.318,348.749 900.770,341.341 C897.754,334.912 893.450,327.283 900.572,322.092 C905.050,318.828 912.325,318.000 916.205,322.742 C918.007,324.944 918.958,328.161 920.022,330.936 C940.985,331.260 947.264,352.610 954.471,368.446 C958.748,377.843 963.024,387.240 967.301,396.637 C969.443,401.343 972.344,406.197 973.894,411.145 C975.997,417.861 972.751,426.173 968.117,431.010 C958.588,440.958 941.260,443.000 929.811,435.233 C924.228,431.446 921.803,424.465 918.937,418.644 C914.373,409.370 909.808,400.097 905.244,390.824 C902.312,384.868 899.265,378.955 896.444,372.947 ZM913.457,328.228 C912.356,329.084 910.997,329.678 909.756,330.006 C907.865,330.505 905.069,331.169 903.443,329.746 C903.416,329.723 903.438,329.680 903.470,329.680 C905.324,329.656 907.133,328.428 908.739,327.596 C909.998,326.943 911.007,326.374 911.785,325.439 C911.748,325.416 911.725,325.401 911.685,325.375 C908.853,323.591 905.037,324.391 902.795,326.838 C900.535,329.304 901.580,330.379 902.675,332.969 C903.589,335.129 904.502,337.289 905.416,339.449 C906.854,339.433 908.217,339.231 909.703,338.672 C911.036,338.171 915.837,336.100 915.989,334.379 C915.993,334.336 916.006,334.297 916.012,334.256 C915.162,332.252 914.356,330.213 913.457,328.228 ZM925.132,419.921 C928.327,426.412 931.213,431.651 938.865,433.937 C950.876,437.524 967.659,431.199 969.266,417.481 C969.427,416.111 969.444,414.673 969.279,413.301 C969.243,413.003 969.248,412.918 969.267,412.921 C968.815,411.592 968.035,410.272 967.461,409.012 C960.571,393.873 953.681,378.733 946.791,363.594 C945.370,360.472 943.986,357.187 942.451,354.013 C939.440,358.120 932.802,362.285 930.652,363.928 C922.908,369.847 911.779,373.861 902.437,369.446 C902.352,369.406 902.391,369.253 902.486,369.264 C910.977,370.286 920.436,365.859 927.008,360.674 C929.600,358.629 932.117,356.480 934.563,354.263 C935.655,353.272 936.660,352.156 937.770,351.191 C939.020,350.106 938.551,349.278 939.011,350.689 C938.723,349.808 938.973,349.036 939.480,348.478 C935.275,341.546 929.606,336.156 920.004,335.934 C919.029,338.921 915.183,341.306 912.669,342.435 C910.689,343.325 907.864,344.257 905.402,344.030 C905.309,344.112 905.220,344.196 905.109,344.270 C898.476,348.685 897.490,359.987 899.453,366.940 C900.143,369.383 901.351,371.610 902.466,373.875 C906.341,381.748 910.217,389.621 914.092,397.493 C917.772,404.969 921.452,412.445 925.132,419.921 ZM907.691,376.087 C914.691,377.244 917.579,388.574 920.256,393.920 C924.725,402.843 930.513,411.216 934.283,420.467 C935.049,422.347 932.066,423.436 931.102,421.806 C926.262,413.629 921.561,405.216 917.192,396.776 C913.740,390.108 910.053,383.335 907.498,376.279 C907.454,376.156 907.585,376.069 907.691,376.087 ZM904.467,347.201 C906.444,344.637 910.083,347.660 907.907,349.853 C904.038,353.751 902.420,360.109 903.207,365.474 C903.221,365.571 903.088,365.613 903.056,365.515 C901.286,360.024 900.740,352.038 904.467,347.201 ZM906.605,335.995 C906.573,335.997 906.542,335.999 906.510,336.001 C905.747,336.050 905.101,335.383 905.005,334.674 C905.001,334.640 905.003,334.604 905.002,334.570 C904.982,334.356 905.010,334.140 905.095,333.942 C905.257,333.478 905.611,333.067 906.103,332.994 C906.298,332.966 906.504,332.913 906.701,332.938 C906.700,332.939 906.700,332.939 906.700,332.939 C907.449,332.955 908.167,333.566 908.144,334.379 C908.143,334.406 908.142,334.433 908.141,334.460 C908.115,335.335 907.453,335.940 906.605,335.995 ZM896.382,506.114 C897.532,507.349 900.040,507.892 901.571,508.497 C902.538,508.879 903.506,509.261 904.471,509.650 C905.169,509.931 906.320,510.678 907.081,510.721 C908.711,510.811 909.847,512.517 908.972,514.011 C908.154,515.407 905.996,515.452 905.189,514.011 C904.707,513.149 902.981,512.392 902.184,511.863 C901.269,511.255 900.353,510.654 899.478,509.988 C898.075,508.921 897.038,507.823 896.075,506.350 C895.953,506.163 896.233,505.953 896.382,506.114 Z"/>
    </symbol>
</svg>
